    <svg
      xmlns="http://www.w3.org/2000/svg"
      fillRule="evenodd"
      strokeLinecap="round"
      strokeMiterlimit="10"
      clipRule="evenodd"
      viewBox="0 0 1280 591"
    >
      <g transform="translate(0 -2595.85)">
        <g transform="matrix(1 0 0 .73752 0 2595.85)">
          <path fill="none" d="M0 0H1280V800H0z"></path>
          <clipPath id="_clip1">
            <path d="M0 0H1280V800H0z"></path>
          </clipPath>
          <g clipPath="url(#_clip1)">
            <g transform="matrix(1 0 0 1.3559 0 -118.28)">
              <path
                fill="#522821"
                d="M506.199 5614.61s22.112 18.65 30.1 50.61c9.374 37.5-5.886 57.86-11.204 71.12-1.707 4.26-9.007 14.71-12.143 18.2-6.525 7.24-22.943 13.37-28.662 1.99-3.081-6.13-3.171-13.55-2.334-20.18 1.032-8.19 3.341-16.4 4.995-24.49 3.808-18.62 19.248-97.25 19.248-97.25z"
                transform="matrix(.79928 -.13339 .12592 .75453 -676.256 -3787.08)"
              ></path>
              <path
                fill="#966450"
                d="M297.33 5907.66c15.555-31.68 26.42-64.16 23.404-80.22-3.461-18.42-23.066-38.09-26.764-56.36-3.258-16.1-5.837-62.93 4.865-75.48 55.324-64.85 96.591-70.15 149.802-63.98 62.191 7.22 75.614 53.25 70.703 88.14-3.682 26.16-9.123 24.7-8.197 44.29.667 14.1 2.206 21.59 3.641 35.19.693 6.58-6.598 8.89-10.88 9.5-2.071.3-4.768-.1-6.651 1.13-6.315 4.12-11.8 20.43-25.604 35.12-11.547 12.29-31.378 18.62-42.852 19.68-9.428.87-11.318 9.91-13.75 27.15-2.234 15.84 4.414 26.08 5.602 34.34"
                transform="rotate(-9.475 -23429.464 2089.928) scale(.77099)"
              ></path>
              <g transform="translate(-3.003 115.208) scale(1.24224)">
                <path
                  fill="#462D2A"
                  d="M472.337 5745.02c-1.242-.17-7.044-.63-7.381 4.51-.214 3.28 4.585 8.14 8.554 3.8 3.227-3.52 1.035-8.01-1.173-8.31z"
                  transform="rotate(-86.395 -2407.618 2989.493) scale(.96992)"
                ></path>
                <path
                  fill="#462D2A"
                  d="M451.893 5743.5a1.482 1.482 0 11-.891-2.83 37.788 37.788 0 015.043-1.68c1.764-.44 3.524-.73 5.266-.89 1.444-.13 2.873-.16 4.274-.1 2.197.08 4.325.36 6.352.76 9.168 1.8 16.297 6.11 19.016 9.39.541.62.482 1.56-.132 2.1a1.49 1.49 0 01-2.095-.13c-2.604-2.77-9.262-5.96-17.509-7.18-1.857-.27-3.794-.42-5.79-.49a62.08 62.08 0 00-3.865-.02c-1.586.04-3.196.13-4.836.31-1.594.18-3.202.39-4.833.76z"
                  transform="matrix(.59563 -.17444 .17444 .59563 -937.677 -3047.7)"
                ></path>
              </g>
              <path
                fill="#462D2A"
                d="M447.226 5726.27s36.721 19.12 48.902 35.37c0 0 5.231 6.19-2.131 2.26-7.363-3.92-52.976-14.55-52.976-14.55s1.85-7.63 2.856-11.37c1.035-3.85 3.349-11.71 3.349-11.71z"
                transform="matrix(-.47736 -.03986 .02986 -.3576 483.565 2615.22)"
              ></path>
              <path
                fill="#714834"
                d="M503.381 5702.65c.538.6.434 1.48-.232 1.96s-1.644.39-2.182-.21c-1.604-1.56-3.277-2.95-4.939-4.26a62.528 62.528 0 00-5.32-3.77 70.015 70.015 0 00-3.36-2.01c-2.895-1.62-5.698-2.89-8.331-3.66-2.946-.89-6.371-1.29-9.907-1.36-5.344-.12-10.924.47-15.556 1.29-.836.17-1.667-.3-1.856-1.05-.188-.75.337-1.49 1.172-1.66 4.809-1.09 10.628-1.99 16.242-2.11 3.984-.08 7.858.25 11.224 1.12a41.21 41.21 0 019.492 3.88c1.213.68 2.424 1.45 3.616 2.3 1.837 1.3 3.65 2.78 5.381 4.46 1.597 1.54 3.104 3.25 4.556 5.08z"
                transform="matrix(.50077 -.1634 .18243 .55908 -851.08 -2638.41)"
              ></path>
              <path
                fill="#522821"
                d="M333.041 5838.09c-33.015-21.68-48.383-65.78-50.906-99.82-2.162-29.18 11.712-70.43 20.36-84.8 1.92-3.19 3.562-4.32 1.791-4.07-21.253 2.94-54.861-7.56-69.953-29.09-18.363-26.19 3.398-79.38 43.081-87.32 25.504-5.09 43.134 16.82 55.544 42.32 3.779 7.76 5.819 21.48 5.875 30.07.005.85-.921 9.13-.334 9.5.481.31.621-.95.932-1.43 1.909-2.95 24.7-39.26 75.948-40.21 44.409-.82 79.695 16.2 108.553 64.24 12.551 20.9 10.171 31.9 9.73 44.58-1.056 30.39-58.115 35.93-80.806 30.7-21.928-5.06-29.434-10.17-45.595-1.1-9.77 5.49-11.478 17.01-24.206 26.01 0 0-.801.48-.905-.89-.543-7.18-7.275-18.14-19.611-15.8-8.934 1.69-16.436 14.34-6.738 29.22 9.264 14.21-3.863 65.04-22.76 87.89z"
                transform="matrix(.79928 -.13339 .12592 .75453 -678.387 -3790.08)"
              ></path>
              <path
                fill="#C4EBE7"
                d="M729.984 5823.47c-28.158 23.27-94.519 38.89-131.456-1.28-57.839-62.89-54.357-186.77 49.124-198.33 40.175-4.48 108.522 9.55 133.542 47.33 35.696 53.9-20.766 127.11-51.21 152.28z"
                transform="translate(37.927 -4090.27) scale(.79743)"
              ></path>
              <path
                fill="#BCEBED"
                d="M617.276 5406.57c-30.618-13.82-104.221-44.63-152.75-9.54-41.898 30.3-60.857 91.47-35.552 131.54 26.696 42.27 85.739 73.93 128.883 58.92 52.474-18.24 78.531-50.43 90.377-107.51 3.999-19.27-10.001-63.94-30.958-73.41z"
                transform="matrix(.77099 0 0 .77099 66.025 -3965.01)"
              ></path>
              <path
                fill="#C4EBE7"
                d="M183.819 5359.87c-52.454-14.6-115.813-16.95-162.978 21.11-72.18 58.25-47.634 191.62 39.833 218.56 53.526 16.48 185.462-12.92 227.645-50.13 50.391-44.46 40.646-121.02-6.227-163.28-15.954-14.38-78.561-17.82-98.273-26.26z"
                transform="translate(100.135 -3208.99) scale(.63339)"
              ></path>
              <path
                fill="#BCEBED"
                d="M168.908 5655.5c-54.161-26.69-137.879 29.55-141.758 102.66-4.221 79.56 24.073 110.44 93.06 121.5 156.18 25.04 150.166-163.01 48.698-224.16z"
                transform="matrix(.77099 0 0 .77099 59.02 -3935.79)"
              ></path>
              <g transform="matrix(.975 0 0 .975 -2.33 152.171)">
                <g>
                  <path
                    fill="#3AAEA3"
                    fillRule="nonzero"
                    d="M95.656 64.562C88.969 83 71.25 95.593 51.437 95.593c-25.969 0-47.094-21.125-47.094-47.062 0-19.719 12.531-37.406 30.781-44.156-7.906 7.969-12.344 18.75-12.344 30.094 0 23.5 19.125 42.625 42.625 42.625 11.375 0 22.219-4.531 30.25-12.531l.001-.001z"
                    transform="matrix(.7399 0 0 .7399 95.966 90.854) matrix(.62064 0 0 .62064 31.786 -26.09)"
                  ></path>
                  <path
                    fill="#3AAEA3"
                    fillRule="nonzero"
                    d="M78 32.094l6 13.344-12.719-7.281c-.281-.188-.687-.125-.937.094L59.5 48.063l3-14.281c.093-.312-.063-.687-.375-.875l-12.688-7.281 14.531-1.563c.343-.031.656-.281.718-.625l3-14.312 6 13.312c.125.313.438.5.844.469l14.531-1.562-10.844 9.812c-.281.281-.375.625-.219.938l.002-.001z"
                    transform="matrix(.7399 0 0 .7399 95.966 90.854) matrix(.62064 0 0 .62064 31.786 -26.09)"
                  ></path>
                </g>
                <path
                  fill="#3AAEA3"
                  d="M49.848 19l-8.949 15.5H23.001L31.95 50l-8.949 15.5h17.898L49.848 81l8.949-15.5h17.895L67.743 50l8.949-15.5H58.797L49.848 19zm0 10l3.176 5.5h-6.352l3.176-5.5zm11.836 10.5h6.348L64.86 45l-3.176-5.5zM37.723 50l6.063-10.5h12.125L61.973 50l-6.062 10.5H43.786L37.723 50zm-6.062-10.5h6.351L34.836 45l-3.175-5.5zM64.859 55l3.172 5.5h-6.347l3.175-5.5zm-30.022 0l3.175 5.5h-6.351l3.176-5.5zm11.836 10.5h6.351L49.848 71l-3.175-5.5z"
                  transform="matrix(.85575 0 0 .85575 156.223 22.774)"
                ></path>
                <g>
                  <path
                    fill="#3AAEA3"
                    fillRule="nonzero"
                    d="M49.984 54.922l.047.047.031-.047h-.078z"
                    transform="translate(277.656 78.41) scale(.85966) matrix(.62064 0 0 .62064 -52.82 -16.964)"
                  ></path>
                  <path
                    fill="#3AAEA3"
                    fillRule="nonzero"
                    d="M93.203 46.391l-3.359.016c-.75-8.141-4.188-15.547-9.438-21.391l5.11-5.032c.734-.734.156-2.5-1.282-3.968-1.453-1.469-3.218-2.063-3.953-1.328l-5.359 5.281a40.012 40.012 0 00-21.219-7.953V6.781c0-.984-.422-1.859-1.078-2.5A3.84 3.84 0 0050 3.25c-2.047 0-3.703 1.578-3.703 3.531v5.375a39.8 39.8 0 00-20.547 8.406l-5.407-5.328c-.218-.218-.515-.312-.875-.312-.859 0-2.062.609-3.078 1.64-1.453 1.469-2.015 3.25-1.281 3.969l5.281 5.203c-4.937 5.766-8.125 12.953-8.812 20.812l-4.813.016c-1.922.016-3.515 1.656-3.515 3.687v.016c0 2.047 1.594 3.703 3.547 3.703h4.875c.859 7.453 3.968 14.281 8.672 19.797l-4.094 4.047c-.735.734-.172 2.5 1.281 3.969 1.016 1.047 2.219 1.64 3.078 1.64.359 0 .656-.093.875-.312l4.219-4.156a40.007 40.007 0 0020.594 8.453v5.797c0 .984.422 1.875 1.078 2.515A3.777 3.777 0 0050 96.75c2.047 0 3.703-1.579 3.703-3.547v-5.672a39.93 39.93 0 0021.25-7.985l4.188 4.11c.734.734 2.5.14 3.953-1.328 1.437-1.453 2.015-3.235 1.265-3.969l-3.922-3.86c5.094-5.687 8.469-12.828 9.328-20.688l3.469-.015c1.922 0 3.516-1.641 3.516-3.688v-.015c0-2.047-1.594-3.703-3.547-3.703v.001zm-39.5-24.75c5.297.516 10.172 2.344 14.281 5.156L53.703 40.891v-19.25zm-7.406.172v19.016L32.641 27.36a30.316 30.316 0 0113.656-5.547zM26.906 32.891L40.797 46.5l-19.578.031c.609-5.078 2.64-9.734 5.687-13.641v.001zm-5.563 21.047l19.156-.031-13.297 13.109c-3.031-3.735-5.093-8.203-5.859-13.078zm24.953 23.797c-5-.719-9.593-2.61-13.453-5.391l13.453-13.172v18.563zm6.907-23.859a4.973 4.973 0 01-2.532 1.015c-.203.032-.39.032-.593.032h-.016l-.031.047-.047-.047a5.044 5.044 0 01-3-1.032 3.497 3.497 0 01-.688-.578 5.17 5.17 0 01-1.39-2.797 5.465 5.465 0 01-.047-.25c-.016-.125-.016-.281-.016-.421-.015-.047-.015-.11-.015-.157 0-.015 0-.047.015-.062 0-1.172.406-2.266 1.094-3.141.109-.156.234-.297.359-.422a5.152 5.152 0 012.985-1.562c.219-.031.453-.063.687-.063h.125c.235 0 .453.016.688.063 1.125.14 2.14.64 2.922 1.39.187.188.359.375.515.579.688.89 1.11 2 1.11 3.218v.063c-.016.187-.016.375-.047.594v.031c-.016.015-.016.047-.016.062a5.185 5.185 0 01-1.562 3.032 3.226 3.226 0 01-.5.406zm.5 24.031V59.126l14.062 13.781a30.486 30.486 0 01-14.062 5zm19.905-10.156L59.514 53.876l20.578-.047c-.796 5.25-3.093 10.031-6.484 13.922zM59.28 46.454l14.609-14.312c3.391 4.015 5.641 8.922 6.313 14.281l-20.922.031z"
                    transform="translate(277.656 78.41) scale(.85966) matrix(.62064 0 0 .62064 -52.82 -16.964)"
                  ></path>
                  <path
                    fill="#3AAEA3"
                    fillRule="nonzero"
                    d="M55.281 50.375c-.016.016-.016.047-.016.063h-.015c.015-.016.015-.047.031-.063zM50.062 54.922l-.031.047-.047-.047h.078z"
                    transform="translate(277.656 78.41) scale(.85966) matrix(.62064 0 0 .62064 -52.82 -16.964)"
                  ></path>
                  <path
                    fill="#3AAEA3"
                    fillRule="nonzero"
                    d="M55.281 50.375c-.016.016-.016.047-.016.063h-.015c.015-.016.015-.047.031-.063zM50.062 54.922l-.031.047-.047-.047h.078z"
                    transform="translate(277.656 78.41) scale(.85966) matrix(.62064 0 0 .62064 -52.82 -16.964)"
                  ></path>
                </g>
                <g>
                  <path
                    fill="#3AAEA3"
                    fillRule="nonzero"
                    d="M22.625 42l-5.922-9.84c1.012-1.847 25.48-17.684 33.375 1.481 4.531 12.492-8.156 19.973-8.156 19.973s4.402 2.156 6.785 2.422c9.004.992 8.731-21.023 24.488-21.023 15.031 0 18.102 16.297 18.102 24.516 0 14.895-6.473 26.09-17.84 26.09-17.258 0-14.586-22.32-13.18-22.871.344-.137.481 9.812 10.578 9.812 7.496 0 15.133-6.594 15.133-18.133 0-3.699-.41-10.305-6.367-11.402-9.742-1.789-12.188 17.359-20.918 17.359-6.129 0-7.227.102-7.227.102s2.985 5.136 3.11 12.125c.175 9.543-5.864 19.719-18.426 19.891-21.824.293-28.973-25.77-27.207-37.199.066-.434.402-.715.758.117 3.246 7.605 5.003 26.352 25.145 24.652 11.672-.985 12.098-8.395 11.898-10.719-.688-8.129-6.512-8.762-9.899-8.652-2.726.085-3.691.304-3.691.304s-2.43-3.254-3.637-5.664c-1.469-2.937-2.203-7.48-2.168-7.48.324 0 5.031.289 7.762.453 4.961.297 12.055-4.715 8.562-9.301-5.511-7.242-21.059 2.988-21.059 2.988l.001-.001zM60.246 7.5c.91.578 8.613 7.379 8.336 7.77-.207.292-7.348 7.703-7.996 7.546-.387-.093-2.871-1.578-4.281-2.871-1.821-1.675-3.559-3.769-3.379-4.336.093-.3 7.148-8.218 7.32-8.109z"
                    transform="matrix(.92846 0 0 .92846 219.213 169.838) matrix(.62064 0 0 .62064 -25.027 -53.063)"
                  ></path>
                  <path
                    fill="#3AAEA3"
                    fillRule="nonzero"
                    d="M77.586 16.867c.641.191 6.629 7.543 6.031 8.5-.722 1.16-8.285 8.305-20.262 8.328-14.684.027-19.711-14.773-18.641-19.977.129-.617 4.766 10.402 15.844 10.898 8.656.383 16.371-7.949 17.027-7.75l.001.001z"
                    transform="matrix(.92846 0 0 .92846 219.213 169.838) matrix(.62064 0 0 .62064 -25.027 -53.063)"
                  ></path>
                </g>
                <path
                  fill="#3AAEA3"
                  fillRule="nonzero"
                  d="M85.895 28.648v19.578H60.348v48.668H40.211V48.226H14.106V28.648h26.105V3.105h20.137v25.543h25.547z"
                  transform="matrix(.46611 0 0 .46611 135.869 128.712)"
                ></path>
              </g>
              <g transform="translate(-127.2 207.435) scale(1.44843)">
                <path
                  fill="#3AAEA3"
                  fillRule="nonzero"
                  d="M61.359 28.121c.48.012 1.16.199 1.52.449 6.078 3.211 11.449 11.441 11.922 18.309 1.73 13.691-7.981 26.199-21.68 27.922v6.449h6.261v6.25h-6.261v6.25h-6.239l-.004-6.25h-6.261v-6.25h6.261v-6.449c-6.871-.469-15.102-5.84-18.309-11.922-7.109-11.84-3.281-27.199 8.551-34.309.359-.25 1.039-.441 1.52-.449-.469 0-1.161-.199-1.52-.441-7.109-3.801-12.531-13.379-12.121-21.43h6.25c0 10.359 8.391 18.75 18.75 18.75s18.75-8.391 18.75-18.75h6.25c.41 8.05-5.012 17.629-12.121 21.43-.359.242-1.051.441-1.519.441zM68.75 50c0-10.359-8.391-18.75-18.75-18.75-10.36 0-18.75 8.391-18.75 18.75S39.64 68.75 50 68.75c10.359 0 18.75-8.391 18.75-18.75z"
                  transform="matrix(.4164 0 0 .4164 436.387 144.606)"
                ></path>
                <path
                  fill="#3AAEA3"
                  d="M79.168 37.5c0 14.695-10.867 26.848-25 28.871V75H62.5v8.332h-8.332v8.336h-8.336v-8.336H37.5V75h8.332v-8.629c-14.133-2.023-25-14.176-25-28.871C20.832 21.391 33.891 8.332 50 8.332S79.168 21.391 79.168 37.5zM50 58.332c11.504 0 20.832-9.328 20.832-20.832 0-11.508-9.328-20.832-20.832-20.832-11.508 0-20.832 9.324-20.832 20.832 0 11.504 9.324 20.832 20.832 20.832z"
                  transform="translate(496.304 143.408) scale(.34808)"
                ></path>
                <path
                  fill="#3AAEA3"
                  fillRule="nonzero"
                  d="M85.488 21.941h6.578V9.488l.004-7.07H73.054l-.02 6.679h8.008L66.854 23.574c-4.629-4.003-10.652-6.437-17.238-6.437a26.26 26.26 0 00-16.754 6.016l-3.601-3.77 3.621-3.641-4.66-4.64-3.508 3.523-5.371-5.613 7.449-.016-.016-6.578-12.453.028-6.578.015.016 6.578.027 12.453 6.578-.015-.019-8.168 5.718 5.984-3.839 3.856 4.664 4.64 3.722-3.738 3.719 3.89.024-.023A26.24 26.24 0 0023.23 43.52c0 13.48 10.164 24.621 23.227 26.184v10.129H34.539v6.578h11.922v11.922h6.578V86.415h11.922l-.004-6.582H53.039V69.669c12.934-1.687 22.953-12.77 22.953-26.152 0-5.59-1.754-10.777-4.731-15.047l14.227-14.23v7.701zM49.613 62.906c-10.691 0-19.391-8.699-19.391-19.391 0-10.692 8.699-19.391 19.391-19.391 10.691 0 19.391 8.699 19.391 19.391 0 10.692-8.699 19.391-19.391 19.391z"
                  transform="matrix(.3876 0 0 .3876 451.972 195.527)"
                ></path>
                <path
                  fill="#3AAEA3"
                  d="M649.461 5738.55l1.982 1.15v-2.35a2.416 2.416 0 114.831 0v2.36l2.037-1.19h.004a2.416 2.416 0 013.299.88 2.412 2.412 0 01-.884 3.3l-2.037 1.18 2.034 1.17h.003a2.412 2.412 0 01.884 3.3 2.42 2.42 0 01-3.292.89l-2.048-1.14v6.89c5.57.8 10.403 4.3 12.888 9.38a17.034 17.034 0 01-.846 16.51 17.035 17.035 0 01-14.457 8.02 17.035 17.035 0 01-15.304-24.53 17.046 17.046 0 0112.888-9.38v-6.92l-2.039 1.18a2.415 2.415 0 11-2.417-4.18l2.044-1.18-2.041-1.19a2.41 2.41 0 01-.887-3.3 2.416 2.416 0 013.299-.88l.059.03zm4.398 45.56c3.236 0 6.341-1.29 8.63-3.58a12.206 12.206 0 10-20.837-8.63c0 3.24 1.285 6.34 3.573 8.63a12.22 12.22 0 008.634 3.58z"
                  transform="matrix(.62064 0 0 .62064 81.846 -3405.75)"
                ></path>
                <path
                  fill="#3AAEA3"
                  d="M609.532 5795.36h13.99v13.99h-3.496v-8.03l-9.436 9.44.24.34c3.328 4.78 2.874 11.39-1.386 15.64-4.779 4.78-12.532 4.78-17.311 0s-4.779-12.53 0-17.31c4.257-4.25 10.868-4.71 15.64-1.38l.343.24 9.436-9.44h-8.02v-3.49zm-2.562 28.91c3.41-3.41 3.41-8.95 0-12.36-3.406-3.41-8.954-3.41-12.363 0-3.412 3.4-3.41 8.95 0 12.36 3.406 3.41 8.954 3.41 12.363 0z"
                  transform="translate(8.045 -4638) scale(.83288)"
                ></path>
              </g>
              <g transform="translate(-26.96 27.023) scale(1.24224)">
                <path
                  fill="#455891"
                  d="M27.957 5h44.082c3.566 0 6.809 1.559 9.152 4.07 2.344 2.508 3.805 5.977 3.805 9.789v62.285c0 3.813-1.457 7.278-3.805 9.79-2.347 2.507-5.589 4.07-9.152 4.07H27.957c-3.566 0-6.809-1.559-9.152-4.07C16.461 88.426 15 84.957 15 81.144V18.859c0-3.812 1.457-7.277 3.805-9.789C21.152 6.562 24.395 5 27.957 5zm-2.473 7.652h49.031c2.2 0 4 1.801 4 4v6.711c0 2.199-1.8 4-4 4H25.484c-2.199 0-4-1.801-4-4v-6.711c0-2.199 1.801-4 4-4zM67.55 62.593h4.621a2.574 2.574 0 012.567 2.571v19.617a2.573 2.573 0 01-2.567 2.566H67.55a2.573 2.573 0 01-2.566-2.566V65.164a2.577 2.577 0 012.566-2.571zm0-14.996h4.621a2.574 2.574 0 012.567 2.571v4.621a2.576 2.576 0 01-2.567 2.57H67.55a2.573 2.573 0 01-2.566-2.57v-4.621a2.577 2.577 0 012.566-2.571zm0-14.996h4.621a2.574 2.574 0 012.567 2.571v4.621a2.576 2.576 0 01-2.567 2.57H67.55a2.573 2.573 0 01-2.566-2.57v-4.621a2.577 2.577 0 012.566-2.571zm-40 44.988h4.621a2.574 2.574 0 012.567 2.571v4.621a2.576 2.576 0 01-2.567 2.57H27.55a2.573 2.573 0 01-2.566-2.57V80.16a2.576 2.576 0 012.566-2.571zm0-14.996h4.621a2.574 2.574 0 012.567 2.571v4.621a2.576 2.576 0 01-2.567 2.57H27.55a2.573 2.573 0 01-2.566-2.57v-4.621a2.576 2.576 0 012.566-2.571zm0-14.996h4.621a2.574 2.574 0 012.567 2.571v4.621a2.576 2.576 0 01-2.567 2.57H27.55a2.573 2.573 0 01-2.566-2.57v-4.621a2.576 2.576 0 012.566-2.571zm0-14.996h4.621a2.574 2.574 0 012.567 2.571v4.621a2.576 2.576 0 01-2.567 2.57H27.55a2.573 2.573 0 01-2.566-2.57v-4.621a2.576 2.576 0 012.566-2.571zm20 44.988h4.621a2.574 2.574 0 012.567 2.571v4.621a2.576 2.576 0 01-2.567 2.57H47.55a2.573 2.573 0 01-2.566-2.57V80.16a2.576 2.576 0 012.566-2.571zm0-14.996h4.621a2.574 2.574 0 012.567 2.571v4.621a2.576 2.576 0 01-2.567 2.57H47.55a2.573 2.573 0 01-2.566-2.57v-4.621a2.576 2.576 0 012.566-2.571zm0-14.996h4.621a2.574 2.574 0 012.567 2.571v4.621a2.576 2.576 0 01-2.567 2.57H47.55a2.573 2.573 0 01-2.566-2.57v-4.621a2.576 2.576 0 012.566-2.571zm0-14.996h4.621a2.574 2.574 0 012.567 2.571v4.621a2.576 2.576 0 01-2.567 2.57H47.55a2.573 2.573 0 01-2.566-2.57v-4.621a2.576 2.576 0 012.566-2.571z"
                  transform="rotate(24.201 -173.83 1088.543) scale(.32105)"
                ></path>
                <path
                  fill="#455891"
                  fillRule="nonzero"
                  d="M97.676 30.656l-2.164-1.223a51.142 51.142 0 00-1.563-.84v-2.929c0-.528-.277-1.016-.73-1.285A42.514 42.514 0 0050 23.922a42.549 42.549 0 00-43.223.453 1.499 1.499 0 00-.727 1.285v2.926c-.527.269-1.05.55-1.562.839l-2.164 1.231a1.504 1.504 0 00-.762 1.305v48.156c0 .82.656 1.488 1.473 1.504l6.769.129c.27.003.535-.063.77-.196 10.418-5.894 22.645-6.297 31.91-1.054a1.5 1.5 0 00.742.195h13.543-.004a1.5 1.5 0 00.742-.195c9.27-5.243 21.492-4.836 31.91 1.054.223.129.481.196.739.196h.027l6.769-.129h.004a1.503 1.503 0 001.481-1.504V31.961c0-.539-.293-1.039-.762-1.305h.001zM48.496 73.41a42.527 42.527 0 00-39.441 0V26.523a39.55 39.55 0 0139.441 0V73.41zm42.445 0h.004a42.527 42.527 0 00-39.441 0V26.523a39.55 39.55 0 0139.441 0l-.004 46.887zm-2.082-13.727a1.498 1.498 0 01-1.941.859 43.396 43.396 0 00-31.379 0 1.501 1.501 0 11-1.086-2.8 46.41 46.41 0 0133.551 0 1.5 1.5 0 01.851 1.937l.004.004zm0-6.625a1.498 1.498 0 01-1.941.855 43.437 43.437 0 00-31.379 0 1.484 1.484 0 01-1.164-.007 1.487 1.487 0 01-.805-.84 1.475 1.475 0 01.031-1.16c.168-.368.473-.653.852-.793a46.41 46.41 0 0133.551 0 1.505 1.505 0 01.851 1.941l.004.004zm0 13.254v-.004a1.49 1.49 0 01-1.941.859 43.437 43.437 0 00-31.379 0 1.503 1.503 0 01-1.086-2.8 46.41 46.41 0 0133.551 0c.769.3 1.148 1.172.851 1.941l.004.004zM88 37.863h.004a1.503 1.503 0 01-1.086 2.801 43.396 43.396 0 00-31.379 0 1.509 1.509 0 01-1.165-.012 1.493 1.493 0 01-.804-.836 1.499 1.499 0 01.883-1.953 46.409 46.409 0 0133.543-.004l.004.004zm.859 8.57v-.004a1.482 1.482 0 01-.793.832 1.498 1.498 0 01-1.148.028 43.396 43.396 0 00-31.379 0 1.502 1.502 0 11-1.086-2.801 46.41 46.41 0 0133.551 0 1.503 1.503 0 01.851 1.941l.004.004zm-3.32-16.07a1.502 1.502 0 11-.926 2.856 43.271 43.271 0 00-26.781 0 1.498 1.498 0 01-1.891-.965 1.498 1.498 0 01.965-1.891 46.218 46.218 0 0128.633 0zM46.41 53.054a1.505 1.505 0 01-1.942.86 43.407 43.407 0 00-31.383 0 1.496 1.496 0 01-1.16-.012 1.5 1.5 0 01.078-2.789 46.399 46.399 0 0133.547 0 1.505 1.505 0 01.86 1.941zM14.461 30.363a46.218 46.218 0 0128.633 0 1.499 1.499 0 01.965 1.891 1.498 1.498 0 01-1.891.965 43.271 43.271 0 00-26.781 0 1.506 1.506 0 01-1.949-1.196 1.5 1.5 0 011.023-1.66zM46.41 66.308a1.505 1.505 0 01-1.942.86 43.407 43.407 0 00-31.383 0 1.501 1.501 0 01-1.082-2.801 46.399 46.399 0 0133.547 0 1.502 1.502 0 01.86 1.941zm0-6.629c-.145.375-.43.672-.793.832a1.487 1.487 0 01-1.149.028 43.448 43.448 0 00-31.383 0 1.498 1.498 0 01-1.941-.856 1.503 1.503 0 01.859-1.945 46.399 46.399 0 0133.547 0 1.498 1.498 0 01.86 1.941zm0-13.254v.004c-.145.371-.43.668-.793.832-.364.16-.778.168-1.149.028a43.407 43.407 0 00-31.383 0 1.503 1.503 0 01-1.082-2.805 46.399 46.399 0 0133.547 0 1.508 1.508 0 01.86 1.945v-.004zm-.86-8.57v.004a1.501 1.501 0 11-1.082 2.801 43.407 43.407 0 00-31.383 0 1.503 1.503 0 01-1.082-2.801 46.399 46.399 0 0133.547 0v-.004z"
                  transform="matrix(.51114 -.05032 .05032 .51114 364.841 136.342)"
                ></path>
                <path
                  fill="#455891"
                  fillRule="nonzero"
                  d="M88.184 22.422L77.579 11.817a1.508 1.508 0 00-2.125 0l-2.828 2.828 3.762 3.762a1 1 0 01-1.414 1.414l-3.762-3.762-2.121 2.121 3.761 3.762a.999.999 0 11-1.414 1.414l-3.761-3.762-2.121 2.122 3.761 3.761a.999.999 0 11-1.414 1.414l-3.761-3.761-2.122 2.121 6.364 6.363a1 1 0 01-1.414 1.414l-6.364-6.363-2.121 2.121 3.762 3.762a.999.999 0 11-1.414 1.414L57.071 30.2l-2.121 2.121 3.762 3.762a1 1 0 01-1.414 1.414l-3.762-3.762-2.121 2.121 3.762 3.762a1 1 0 01-1.414 1.414l-3.762-3.762-2.121 2.122 3.761 3.761a.999.999 0 11-1.414 1.414l-3.761-3.761-2.121 2.121 6.363 6.363a.999.999 0 010 1.414.994.994 0 01-1.414.004l-6.363-6.363-2.122 2.121 3.762 3.762a.999.999 0 11-1.414 1.414l-3.762-3.762-2.121 2.121 3.762 3.762a.999.999 0 11-1.414 1.414l-3.762-3.762-2.121 2.121 3.762 3.762a1 1 0 01-1.414 1.414l-3.762-3.762-2.121 2.121 3.762 3.762a1 1 0 01-1.414 1.414l-3.762-3.761-2.121 2.121 6.363 6.363a.999.999 0 11-1.414 1.414l-6.363-6.363-13.438 13.438a1.51 1.51 0 000 2.125l10.605 10.605c.293.293.676.437 1.062.437a1.5 1.5 0 001.063-.437l63.641-63.641a1.508 1.508 0 00-.004-2.125v-.001zM27.207 76.707c-1.047 1.047-2.867 1.047-3.914 0a2.75 2.75 0 01-.813-1.957c0-.738.289-1.434.813-1.957a2.752 2.752 0 011.957-.812c.738 0 1.433.289 1.957.812.523.52.812 1.215.812 1.953s-.289 1.438-.812 1.961z"
                  transform="translate(356.855 182.535) scale(.49391)"
                ></path>
                <g>
                  <path
                    fill="#455891"
                    d="M78.629 14.969l6.367 6.359-3.554 3.559-6.36-6.367 2.762-2.766.785-.785zM73.668 19.934l6.359 6.371-3.55 3.551-6.364-6.363 3.555-3.559zM68.695 24.902l6.363 6.363-48.852 48.863-11.203 4.895 4.836-11.258 48.856-48.863z"
                    transform="matrix(.46201 -.26626 .26626 .46201 512.603 264.546) matrix(.62064 0 0 .62064 -174.33 -215.941)"
                  ></path>
                </g>
              </g>
              <g transform="translate(-41.167 38.713) scale(1.24224)">
                <g>
                  <path
                    fill="#455891"
                    fillRule="nonzero"
                    d="M32.5 50H40V57.5H32.5z"
                    transform="translate(48.331 493.448) scale(1.54051) matrix(.62064 0 0 .62064 27.523 -87.525)"
                  ></path>
                  <path
                    fill="#455891"
                    fillRule="nonzero"
                    d="M60.953 50H68.5V57.5H60.953z"
                    transform="translate(48.331 493.448) scale(1.54051) matrix(.62064 0 0 .62064 24.723 -87.525)"
                  ></path>
                  <path
                    fill="#455891"
                    fillRule="nonzero"
                    d="M71 63.5v-19h4.102l-2.2-12.5H38v-4h-6v4h-4.75l-2.199 12.5H28.5v19H25v2h49.5v-2H71zm-1.797 0H55V50h-8.5v13.5H30.237v-19h38.966v19z"
                    transform="translate(48.331 493.448) scale(1.54051) matrix(.62064 0 0 .62064 26.15 -87.525)"
                  ></path>
                </g>
                <g>
                  <path
                    fill="#455891"
                    fillRule="nonzero"
                    d="M44.523 17.914c0 5.914-4.793 10.707-10.707 10.707-5.91 0-10.707-4.793-10.707-10.707 0-5.914 4.797-10.707 10.707-10.707 5.914 0 10.707 4.793 10.707 10.707M75.125 23.699l-4.027-9.32a9.736 9.736 0 00-19.082 3.288h-.043l.77 11.043 22.382-5.011zM90.77 61.535L75.879 39.328h.004a4.348 4.348 0 00-.836-.813c-.055-.074-.098-.156-.152-.23v-.004a13.796 13.796 0 00-8.657-5.316c-.23-.051-.468-.082-.714-.121-.325-.043-.633-.145-.969-.168h.004a5.663 5.663 0 00-.824-.035h-.141c-.188 0-.356-.059-.559-.059h.004a14.55 14.55 0 00-8.511 2.773 14.563 14.563 0 00-5.29 7.227c0-.051-.019-.106-.035-.156a13.853 13.853 0 00-11.48-9.672 13.862 13.862 0 00-13.555 6.457c-.023.043-.043.09-.066.129L9.231 61.535a4.464 4.464 0 107.414 4.976l5.461-8.148v34.434h17.43V81.211a10.587 10.587 0 017.785-10.215 6.957 6.957 0 011.5-.25 20.444 20.444 0 012.5 0 10.524 10.524 0 019.324 10.465v11.582H77.61V57.938l5.75 8.57h-.004a4.465 4.465 0 007.414-4.976v.003zM50.079 67.23a8.131 8.131 0 01-7.531-5.019 8.14 8.14 0 011.754-8.879 8.14 8.14 0 018.879-1.774 8.145 8.145 0 01-3.102 15.672z"
                    transform="matrix(.6621 0 0 .6621 181.984 533.335) matrix(.62064 0 0 .62064 -15.734 -226.499)"
                  ></path>
                </g>
                <g>
                  <path
                    fill="#455891"
                    fillRule="nonzero"
                    d="M41 29v-3h18v3h6v-3c0-3.301-2.699-6-6-6H41c-3.301 0-6 2.699-6 6v3h6zM77 32H23c-3.301 0-6 2.699-6 6v12h66V38c0-3.301-2.699-6-6-6zM56 53v6c0 1.699-1.301 3-3 3h-6c-1.699 0-3-1.301-3-3v-6H17v18c0 3.301 2.699 6 6 6h54c3.301 0 6-2.699 6-6V53H56z"
                    transform="rotate(-11.154 2277.916 -321.927) matrix(.62064 0 0 .62064 40.081 -106.759)"
                  ></path>
                  <path
                    fill="#455891"
                    fillRule="nonzero"
                    d="M47 53H53V59H47z"
                    transform="rotate(-11.154 2277.916 -321.927) matrix(.62064 0 0 .62064 40.081 -106.759)"
                  ></path>
                </g>
              </g>
              <g>
                <g fill="none" stroke="#fff" strokeWidth="5">
                  <path
                    d="M281.049 201.528c-2.76 0-5-2.241-5-5 0-2.76 2.24-5 5-5 2.759 0 5 2.24 5 5 0 2.759-2.241 5-5 5z"
                    transform="translate(2.928 129.789) scale(1.24224) matrix(.7627 0 0 .48681 -4.633 -2543.44) matrix(1.05547 0 0 1.65361 2.985 5154.32)"
                  ></path>
                  <path
                    strokeMiterlimit="75"
                    d="M329.241 271.641v-75.113h-43.192"
                    transform="translate(2.928 129.789) scale(1.24224) matrix(.7627 0 0 .48681 -4.633 -2543.44) matrix(1.05547 0 0 1.65361 2.985 5154.32)"
                  ></path>
                </g>
                <g fill="none" stroke="#fff" strokeWidth="5">
                  <path
                    d="M212.788 408.949c0 2.759-2.24 5-5 5-2.759 0-5-2.241-5-5 0-2.76 2.241-5 5-5 2.76 0 5 2.24 5 5z"
                    transform="translate(2.928 129.789) scale(1.24224) matrix(.72014 0 0 .90331 13.36 -4916.19) matrix(1.11784 0 0 .89116 -21.825 5404.46)"
                  ></path>
                  <path
                    strokeMiterlimit="75"
                    d="M288.941 374.285h-81.153v29.664"
                    transform="translate(2.928 129.789) scale(1.24224) matrix(.72014 0 0 .90331 13.36 -4916.19) matrix(1.11784 0 0 .89116 -21.825 5404.46)"
                  ></path>
                </g>
                <g fill="none" stroke="#fff" strokeWidth="5">
                  <path
                    d="M576.719 316.968c0 2.759-2.241 5-5 5-2.76 0-5-2.241-5-5 0-2.76 2.24-5 5-5 2.759 0 5 2.24 5 5z"
                    transform="translate(2.928 129.789) scale(1.24224) matrix(1.10967 0 0 .96113 -198.287 -5174.96) matrix(.72544 0 0 .83755 176.566 5348.6)"
                  ></path>
                  <path
                    strokeMiterlimit="75"
                    d="M444.695 284.214h127.024v27.754"
                    transform="translate(2.928 129.789) scale(1.24224) matrix(1.10967 0 0 .96113 -198.287 -5174.96) matrix(.72544 0 0 .83755 176.566 5348.6)"
                  ></path>
                </g>
                <g fill="none" stroke="#fff" strokeWidth="5">
                  <path
                    d="M481.056 236.454c0-2.76 2.241-5 5-5 2.76 0 5 2.24 5 5 0 2.759-2.24 5-5 5-2.759 0-5-2.241-5-5z"
                    transform="translate(2.928 129.789) scale(1.24224) matrix(.4938 0 0 .7865 111.363 -4199.39) matrix(1.63019 0 0 1.02351 -230.291 5295.75)"
                  ></path>
                  <path
                    strokeMiterlimit="75"
                    d="M486.056 284.214v-42.76"
                    transform="translate(2.928 129.789) scale(1.24224) matrix(.4938 0 0 .7865 111.363 -4199.39) matrix(1.63019 0 0 1.02351 -230.291 5295.75)"
                  ></path>
                </g>
              </g>
            </g>
            <g transform="matrix(1 0 0 1.0853 0 -13.697)">
              <path
                fill="#BCEBED"
                d="M416.982 7591.02l-.001.01c-.036.1-.073.2-.11.31-3.795 10.56-9.139 20.27-16.029 28.44a70.728 70.728 0 01-8.87 8.79c-7.534 8.7-16.037 16.98-25.167 24.48-9.483 7.8-19.636 14.76-30.016 20.56a231.335 231.335 0 01-14.881 11.39c-11.862 8.36-24.746 15.73-38.263 21.55-14.584 6.27-29.9 10.73-45.519 12.86-25.389 3.46-49.933.28-73.135-7.61-20.294-6.91-39.541-17.51-57.147-30.03-43.119-30.65-73.59-80.92-86.917-136.2-12.948-53.71-9.571-111.53 10.61-158.16 7.026-16.23 16.891-30.56 28.703-43.3 14.343-15.47 31.705-28.5 49.141-40.04 14.161-9.37 29.151-17.69 44.994-23.42 12.659-4.58 25.854-7.57 39.63-8.47 33.734-2.2 77.836 2.37 115.873 15.98 31.655 11.33 59.049 29.06 77.092 51.87 21.608 27.32 34.022 55.7 40.61 85.66 5.89 26.78 6.913 54.95 5.396 85.02-.664 13.15-1.452 27.1-3.747 40.59-2.025 11.9-5.174 23.47-9.795 34.31-.77 1.8-1.587 3.61-2.452 5.41z"
                transform="matrix(-1.1113 0 0 -1.41795 1210.79 11009.9)"
              ></path>
              <path
                fill="#fff"
                d="M439.922 9190.24c-3.226 19.79-.836 40.06-3.621 59.94-.722 5.14-1.285 10.27-1.553 15.46-.035.69-.675 4.46-.205 4.89.616.56 3.424.36 4.318.42 4.532.33 11.405-2.43 15.941-2.46 12.631-.08 22.702 1.01 35.25-.49 5.818-.7 13.039 1.25 17.928-2.22.553-.4.715-2.71.819-3.37.57-3.65.915-7.32 1.153-11 .976-15.1.165-30.23.74-45.33.162-4.27.828-8.39 1.719-12.57.092-.43 1.089-3.81.866-3.98-4.195-3.18-10.615.01-15.646-.67-9.29-1.27-16.625.5-27.549-.08-9.095-.48-19.72 2.27-28.941 1.35M549.755 9191.07c7.928-1.31 15.769-3.27 23.858-3.21 10.616.09 20.999 2.47 31.599 3.01 4.51.23 9.225.65 13.7-.22.761-.14 4.412-1.57 4.955-1.27.498.27.375 3.39.409 4.17.198 4.5-.387 9.04-1.104 13.47-2.326 14.35-4.249 28.83-5.942 43.27-.446 3.8-.783 7.64-.846 11.46-.018 1.07-2.687 2.98-3.112 3.82-.269.54-64.437 1.44-65.451 4.28-.562 1.57-.864-4.19-1.017-5.81-.525-5.54.045-11.11.425-16.64 1.274-18.58 4.112-37.57 3.976-56.18M659.782 9190.1c16.841-4.01 33.727.81 50.765-.91 4.696-.48 9.343-1.34 14.042-1.81.457-.05 4.048-.75 4.26-.52.6.65.412 2.87.501 3.79.341 3.54.181 7.11.047 10.66-.578 15.41-4.711 30.06-6.675 45.25-.59 4.57-.821 9.17-1.04 13.76-.016.34.015 4-.219 4.07-5.115 1.53-11.721.44-17.072.57-11.559.28-23.116.37-34.68.39-4.146.01-8.332-.12-12.477.11-.453.03-3.371.61-3.665.34-.417-.39-1.114-1.09-.999-1.62 1.957-9.05 2.558-21.63 4.147-30.42 2.766-15.29 1.379-28.31 2.574-43.78M440.79 9317.31h44.652c6.209 0 12.319.55 18.473 1.35.207.03 5.507.4 5.638.75 1.182 3.12 1.036 7.11 1.223 10.38.445 7.81.322 15.59.151 23.4-.195 8.87-.559 17.8.239 26.64.336 3.72.649 7.44.938 11.17.036.46.574 3.31.261 3.56-2.607 2.07-8.243 2.22-11.343 2.58-9.985 1.14-20.073 1.11-30.109 1.17-7.018.04-14.111.17-21.129-.17-1.581-.07-5.302.4-6.699-.33-.463-.23-.539-3.8-.584-4.27-.481-4.99-.673-10.01-.796-15.01-.506-20.47-1.948-40.75-.976-61.24M543.217 9317.2c17.315-2.29 35.007-2.13 52.455-2.19 3.606-.02 7.243.08 10.851-.05.585-.02 5.33-.6 5.516-.24 2.005 3.83 1.94 9.79 2.31 14.16.481 5.7-.268 11.42-.463 17.13-.301 8.76-.329 17.54-.362 26.31-.018 4.72.547 9.15 1.273 13.81.066.42.884 4.06.639 4.21-3.949 2.37-9.969 2.77-14.363 3.49-12.834 2.11-26.072 2.16-39.045 2.3-4.457.05-8.922.01-13.377.16-.641.02-3.982.52-4.386.11-.643-.66-.392-4.47-.438-5.2-.317-5.02-.484-10.05-.661-15.08-.698-19.92-1.335-39.7 1.893-59.44M648.484 9316.25c-2.853 11.9-3.696 23.89-3.941 36.11-.191 9.52-.529 19.98 2.179 29.25.547 1.87 1.07 3.75 1.627 5.62.09.3.298 1.75.523 1.85 6.121 2.9 14.785 2.17 21.296 1.5 9.784-1 19.603-1.88 29.422-2.48 4.046-.25 8.245-.04 12.201-1.04.515-.13 2.991-.79 3.095-1.22.635-2.66-.975-7.49-.958-10.38.043-7.57.928-14.79 2.029-22.29 1.436-9.77 2.615-19.57 3.976-29.35.305-2.19.627-4.38.752-6.6.006-.1.187-1.97.049-2.03-1.656-.72-4.085-.45-5.921-.55-5.784-.3-11.575.03-17.36.17-16.786.43-33.792 1.12-50.584.82"
                transform="matrix(.8207 0 0 1.02532 497.04 -9249.53)"
              ></path>
              <path
                d="M489.914 9221.61c-.269.39-.548.77-.839 1.14a21.25 21.25 0 01-1.304 1.51 13.944 13.944 0 01-3.209 2.5c-1.675.96-3.512 1.61-5.447 2.23a.804.804 0 01-1.018-.5.805.805 0 01.498-1.02c1.786-.65 3.479-1.33 5.01-2.3.971-.61 1.872-1.34 2.684-2.26.399-.46.772-.93 1.128-1.42.359-.49.697-.99 1.017-1.51.158-.26.353-.85.568-1.21.16-.27.349-.46.516-.58.435-.32.825-.27 1.14-.16.239.09.476.27.651.58.13.24.181.83.295 1.11l.829 2.16c.382.97.814 1.82 1.353 2.61.524.76 1.154 1.45 1.941 2.1.181.15.793.65 1.059.87.251-.29.559-.87.718-1.06.723-.89 1.23-1.99 1.54-3.14.32-1.19.434-2.43.344-3.59a19.954 19.954 0 00-1.725-6.71c-.966-2.09-2.323-4-4.106-5.38-1.637-1.27-3.467-2.18-5.312-2.36-1.766-.17-3.536.34-5.123 1.83-.432.41-.844.86-1.218 1.34-.374.48-.712.99-.996 1.51a24.82 24.82 0 00-1.507 3.34 28.98 28.98 0 00-1.049 3.53c-.34 1.48-.509 3.06-.465 4.63.043 1.56.292 3.11.794 4.54.15.41-.066.87-.482 1.02a.798.798 0 01-1.026-.48c-.585-1.57-.895-3.29-.973-5.02a20.15 20.15 0 01.422-5.07c.27-1.27.618-2.54 1.048-3.77.433-1.25.952-2.46 1.56-3.62.322-.61.707-1.22 1.134-1.79.428-.57.9-1.1 1.398-1.59 2.044-1.97 4.357-2.65 6.669-2.46 2.22.18 4.452 1.2 6.441 2.7 2.084 1.57 3.702 3.73 4.85 6.14 1.128 2.37 1.795 4.98 2.014 7.47.123 1.42-.001 2.95-.382 4.4-.39 1.49-1.052 2.89-1.976 4.04-.309.38-.797 1.03-1.313 1.43-.401.32-.831.52-1.236.57-.289.04-.715-.03-1.163-.3-.507-.3-1.19-.95-1.47-1.19a12.307 12.307 0 01-2.354-2.62c-.619-.94-1.112-1.95-1.54-3.1l-.388-1.09zm6.803 5.92c-.073 0-.149-.01-.194 0-.025 0-.086-.01-.076.01.056.14.153.11.27-.01zm-7.214-7.62c-.006-.21-.038-.38-.172-.34-.222.06-.057.21.172.34zM479.311 9230.58a.8.8 0 111.44-.7c.799 1.39 1.645 2.94 2.594 4.37.587.89 1.205 1.73 1.965 2.4.608.57 1.249 1.03 1.948 1.25.615.2 1.271.19 1.97-.13.244-.12.476-.24.698-.39.225-.14.443-.3.652-.48.428-.35.846-.74 1.245-1.14.401-.4.786-.82 1.144-1.25.477-.58.917-1.19 1.32-1.82.41-.64.786-1.31 1.132-1.98a.802.802 0 111.449.69 25.95 25.95 0 01-1.079 2.18c-.401.73-.844 1.43-1.33 2.09a19.363 19.363 0 01-2.493 2.8c-.266.25-.543.47-.833.68-.293.21-.602.4-.927.58-.989.52-1.952.66-2.872.55-1.297-.15-2.521-.86-3.641-1.85a12.039 12.039 0 01-2.296-3c-.857-1.56-1.451-3.3-2.086-4.85zM474.671 9266.21a.804.804 0 01-.892.7.813.813 0 01-.7-.9c.077-.87.176-1.73.292-2.59.266-1.99.611-3.96.878-5.95l.615-5.13c.131-1.05.2-2.37.437-3.6.186-.96.482-1.87.926-2.61.768-1.25 2.083-2.03 3.623-2.41 1.902-.47 4.143-.34 5.755-.06.662.12 1.228.42 1.759.8.346.24.673.52 1.047.71.18.09.374.16.606.14a.89.89 0 00.362-.11c.604-.31 1.127-.82 1.772-1.08.796-.32 1.662-.43 2.546-.39 1.14.04 2.31.3 3.344.52.666.14 1.352.22 1.884.56.323.2.609.47.827.86.542.98.816 2.07.91 3.19.128 1.54-.069 3.14-.254 4.57-.357 2.77-.946 5.51-1.414 8.26a58.111 58.111 0 00-.497 3.5.802.802 0 11-1.596-.16c.099-1.2.25-2.4.424-3.6.398-2.74.918-5.47 1.206-8.22.137-1.31.293-2.77.145-4.16-.089-.83-.293-1.64-.711-2.36-.071-.12-.191-.16-.308-.19-.32-.1-.678-.12-1.025-.19-.926-.17-1.973-.4-2.991-.42-.572-.01-1.134.06-1.645.28-.577.24-1.026.73-1.564 1.02-.38.21-.789.34-1.245.38-.677.06-1.253-.09-1.782-.34-.401-.2-.77-.46-1.138-.72-.328-.23-.644-.48-1.053-.55-1.341-.22-3.202-.32-4.779.08-.897.23-1.71.61-2.156 1.35-.316.51-.501 1.15-.642 1.82-.247 1.18-.347 2.44-.497 3.44l-.822 5.16c-.375 1.97-.816 3.93-1.2 5.89-.162.84-.318 1.67-.447 2.51z"
                transform="matrix(.8207 0 0 1.02532 497.04 -9249.53)"
              ></path>
              <path
                d="M485.026 9246.94a.808.808 0 01.983-.57c.428.12.681.56.565.98-.166.96-.279 1.89-.413 2.83-.135.94-.251 1.87-.383 2.8-.265 1.87-.526 3.73-.645 5.6-.156 2.48-.167 4.99.038 7.56a.801.801 0 01-.703.89.792.792 0 01-.889-.7c-.606-4.01-.807-7.88-.427-11.76.077-.79.181-1.57.326-2.35.095-.51.209-1.03.343-1.54.329-1.26.75-2.49 1.205-3.74z"
                transform="matrix(.8207 0 0 1.02532 498.589 -9248.89)"
              ></path>
              <path
                d="M485.77 9244.9a.81.81 0 01-.88.72.804.804 0 01-.714-.88c-.054-.36-.126-.67-.16-1.03a7.053 7.053 0 01-.037-1.01c.02-.46.103-.92.17-1.37.156-1.08.358-2.13.471-3.21a.8.8 0 011.603 0c.131 1.37.243 2.74.195 4.12-.01.28-.029.55-.071.82-.028.18-.067.36-.118.53-.13.46-.3.86-.459 1.31zM491.983 9245.86c0 .45-.359.81-.802.81a.804.804 0 01-.801-.81c-.091-.34-.196-.64-.267-.99a7.109 7.109 0 01-.146-1c-.029-.46.004-.92.023-1.39.045-1.09.143-2.16.183-3.26a.8.8 0 01.747-.85c.441-.03.824.3.853.74.224 1.36.471 2.69.57 4.05.019.27.029.54.017.81-.009.18-.029.36-.06.54-.08.47-.205.89-.317 1.35zM456.307 9249.3c-2.233-.52-3.777-1.4-4.889-2.44-1.066-1-1.651-2.24-2.007-3.65-.369-1.62-.834-2.46-.977-3.53-.114-.85-.057-1.81.288-3.17 1.437-4.94 5.012-6.76 8.401-6.43 3.428.34 6.817 2.96 7.59 7.04.102.55.316 1.76.386 2.75.048.68.037 1.28-.047 1.66-.491 2.16-1.507 3.87-2.798 5.13-1.55 1.51-3.435 2.4-5.138 2.68-.269.06-.548.04-.809-.04zm.492-1.53c2.552-.51 5.595-2.65 6.348-6.61.142-.74-.28-2.85-.442-3.59-1.299-5.93-9.643-7.74-11.67-.42-.717 2.59.088 3.18.54 5.67.41 2.25 1.926 3.89 5.224 4.95z"
                transform="matrix(.8207 0 0 1.02532 497.04 -9249.53)"
              ></path>
              <path
                fill="#462D2A"
                d="M453.327 9251.38c-1.691 0-3.43-.11-5.111.12-.225.03-1.524.35-1.667.22-.411-.4-.341-1.71-.341-2.21 0-2.3.337-4.56.731-6.82 1.005-5.76 1.139-14.99 8.924-15.54 1.057-.07 2.227-.1 3.259.2 6.98 2.01 7.384 11.28 7.219 17.13-.043 1.51-.118 3.04-.003 4.55.036.47.377 1.77.112 2.25-.374.68-2.583.91-3.218.97-.38.03-.82-.95-.942-1.23-.712-1.62.093-3.21.126-4.9.048-2.37 1.499-6.61-2.848-12.27-.469-.61-2.33-.52-3.104-.57-2.056-.15-2.836.48-4.089 1.88-1.775 1.98-1.196 4.4-.967 6.87.153 1.65.519 3.57.831 5.21.4 2.1.152 2.36.924 4.35"
                transform="matrix(.8207 0 0 1.02532 497.04 -9249.53)"
              ></path>
              <g
                fill="#131F51"
                fillRule="nonzero"
                transform="matrix(.39478 0 0 .49322 958.84 187.921)"
              >
                <path d="M44.211 16.871c4.531.004 8.207-3.676 8.207-8.207A8.193 8.193 0 0044.211.461a8.177 8.177 0 00-8.203 8.203c-.012 4.531 3.668 8.211 8.203 8.207zM92.371 99.539L100 58.078h-5.844l-6.707 35.668H77.312l-6.805-35.668h-5.886l7.816 41.461h19.934zM4.055 57.074l4.39 4.395 4.395-4.395-4.395-4.34-4.39 4.34z"></path>
                <path d="M3.57 64.414H9.554V70.395H3.57z"></path>
                <path d="M9.895 41.633h14.77c1.148.02 2.554-.41 3.378-1.644l5.598-8.012.051 62.699c.016 6.258 9.238 6.199 9.219-.145l.047-36.484h1.785v36.438c-.02 6.379 9.312 6.535 9.316.192V31.689H55.7v22.496c-.024 5.402 7.301 5.402 7.285.097l.004-24.57c.015-6.632-4.902-10.523-10.09-10.523H38.278c-3.465-.004-5.981 1.368-8.11 4.395L22.782 34.35H9.993c-5.172-.004-4.883 7.305-.098 7.285v-.002zM8.738 48.824L4.344 44.48 0 48.824l4.344 4.391 4.394-4.391z"></path>
              </g>
              <path
                fill="#1A7217"
                d="M706.534 9249.89l-9.118.04.009 2.84c0 .15-.102.29-.251.33a.331.331 0 01-.393-.15l-5.773-9a.37.37 0 01-.001-.4l5.771-9c.084-.13.244-.2.393-.15.149.04.252.18.251.33l-.02 2.86 8.422.08c.089 0 .172.04.216.12l3.751 6.44c.339.58.533 1.38.573 2.2.038.78-.063 1.58-.297 2.24a.331.331 0 01-.124.15c-.512.32-1.062.58-1.618.76-.602.2-1.209.31-1.782.32h-.003l-.22-.1.218.09s-.006-.15.01-.3h-.008l-.002-.01h-.308c0 .09.034.17.09.22.055.06.13.09.214.09zm-10.327-44.41c.332-.58.92-1.14 1.608-1.59.652-.42 1.393-.73 2.078-.86.06-.01.121 0 .175.03.527.29 1.024.64 1.46 1.02.471.42.87.89 1.158 1.38l.012.03c.261.44 4.592 7.88 4.592 7.88l2.476-1.44a.33.33 0 01.388.05c.104.1.13.25.064.38l-4.901 9.5a.348.348 0 01-.334.2l-10.682-.46a.365.365 0 01-.348-.28.39.39 0 01.177-.42l2.438-1.4-4.15-7.28a.32.32 0 010-.32l3.789-6.42c-.013.02-.022.05-.028.07.014-.06.102.07.169.18l-.141-.25zm.099.33c-.057-.04-.117-.09-.13-.17a.248.248 0 00.122.18l.008-.01zm6.278.04a.265.265 0 00.102-.1c.026-.05.038-.1.038-.15a.277.277 0 01-.038.14.295.295 0 01-.103.11h.001zm-35.627 24.36a.356.356 0 01-.121-.12.293.293 0 010-.3l4.534-7.92-2.464-1.41a.357.357 0 01-.165-.39.337.337 0 01.324-.26l10.682-.5c.146-.01.281.07.349.2l4.908 9.5c.072.13.044.3-.068.41a.343.343 0 01-.417.05l-2.461-1.44-4.278 7.25a.25.25 0 01-.217.13l-7.451.02c-.673 0-1.459-.23-2.191-.6-.694-.36-1.338-.85-1.791-1.38a.281.281 0 01-.069-.18c-.016-.6.035-1.21.153-1.78.128-.62.335-1.2.618-1.7a.298.298 0 00.002.3c.029.06.072.09.122.12h.001zm28.333-25.26l-9.185 16.05a.317.317 0 01-.435.11l-10.128-5.8a.355.355 0 01-.165-.21.354.354 0 01.035-.27l5.409-9.41c.53-.92 1.441-1.75 2.489-2.36 1.046-.6 2.226-.96 3.283-.96l10.405.07.648.05a.29.29 0 01.097.54c-.498.26-.969.58-1.381.94-.436.38-.807.8-1.072 1.25zm-25.177 31.51l18.488-.07c.085 0 .166.03.226.09.059.06.093.14.093.23l.037 11.67c0 .1-.038.19-.104.25a.35.35 0 01-.252.11l-10.85.01c-1.06 0-2.24-.37-3.284-.97-1.044-.61-1.95-1.45-2.476-2.37l-5.138-9.04-.284-.59a.28.28 0 01.08-.32.292.292 0 01.333-.03c.477.3.99.55 1.507.73a5.63 5.63 0 001.624.3zm47.288-5.44c.523.9.79 2.08.794 3.26.003 1.19-.258 2.38-.775 3.29l-5.167 9.02-.366.55a.325.325 0 01-.356.11.32.32 0 01-.208-.31 7.355 7.355 0 00-.148-1.66 5.232 5.232 0 00-.564-1.53l-9.283-15.99a.377.377 0 01.137-.51l10.122-5.8a.34.34 0 01.468.12l5.346 9.45z"
                transform="matrix(.8207 0 0 1.02532 497.04 -9249.53)"
              ></path>
              <path
                fill="#23282C"
                d="M666.439 9371.65c-.177-.3-.393-.62-.511-.86-.515-1.02-1.121-1.97-1.481-2.58-.604-1.04-1.337-2.09-1.882-3.2-.304-.63-.571-1.26-.75-1.92a12.764 12.764 0 01-.381-4.32c.155-1.97.663-3.96 1.329-5.68.305-.79.802-1.4 1.543-1.76.958-.48 2.668-.41 3.441-.21a7.82 7.82 0 011.926.77c.431.26.844.54 1.237.86l.008-.12c.078-1.12.018-2.25.011-3.37a2.086 2.086 0 011.987-2.18 2.09 2.09 0 012.178 1.99c.103 1.22.257 2.46.267 3.7.008.97-.094 1.93-.324 2.89-.117.49-.893 2.14-1.689 2.78-.804.65-1.711.72-2.583.47-.346-.1-.691-.29-1.041-.54-.454-.32-.91-.88-1.26-1.18a5.79 5.79 0 00-1.017-.7l-.049-.03c-.127.62-.22 1.26-.267 1.9-.077 1.04.008 2.08.326 3.02.14.41.373.8.608 1.19.509.83 1.113 1.63 1.627 2.42.802 1.29 2.486 3.81 2.93 6 .377 1.86.059 3.57-1.012 4.86-.371.43-.834.85-1.45 1.1-.676.29-1.685.39-2.257.49l-5.665.7-5.65.35a2.093 2.093 0 01-2.297-1.85 2.083 2.083 0 011.848-2.3l5.278-1.36 5.022-1.33zm.352-15.41a1.13 1.13 0 01-.175-.04c-.087-.01-.393-.16-.385-.02.022.36.267.3.56.06zm.36 15.36c.335.01.673.01.603-.23-.079-.27-.357-.05-.603.23zm-.458.57c-.128.15-.28.32-.14.32.18-.01.202-.14.14-.32zM703.012 9330.4a2.089 2.089 0 011.99-2.18 2.086 2.086 0 012.175 1.99c.247 1.5.477 2.97.653 4.48.173 1.48.277 2.96.41 4.45.05 1.03.105 2.39-.121 3.58a6.144 6.144 0 01-.902 2.22c-.811 1.18-1.805 1.92-2.931 2.33-1.301.49-2.818.53-4.377.38-.682-.07-1.373-.18-2.038-.2-.312-.01-.621-.09-.885.04-.34.16-.614.37-.824.63-1.183 1.5-1.813 3.43-3.239 4.78-.854.8-1.814 1.49-2.861 2.1-1.964 1.13-4.196 1.96-6.019 3.18-.923.69-2.23.5-2.917-.42a2.087 2.087 0 01.426-2.92c1.763-1.45 3.978-2.55 5.897-3.92.665-.47 1.269-1 1.791-1.59.437-.49.674-1.1.945-1.69.441-.97.879-1.93 1.456-2.8.646-.97 1.497-1.78 2.622-2.44.907-.54 1.942-.78 3.039-.88 1.087-.1 2.264.02 3.397.06.327.01.648 0 .955-.03.138-.02.291.01.377-.12l.242-2.26.739-8.77z"
                transform="matrix(.8207 0 0 1.02532 497.04 -9249.53)"
              ></path>
              <path
                fill="#23282C"
                d="M695.706 9367.79c-.081 1.14-.174 2.27-.292 3.4-.265 2.54-.647 5.05-1.284 7.54a2.077 2.077 0 01-2.495 1.56 2.079 2.079 0 01-1.57-2.49c.461-2.31.677-4.63.798-6.97.297-5.74-.02-11.54.631-17.26.13-1.11-.403-4.7-.15-6.89.19-1.64.886-2.81 1.591-3.42.117-.1.513-.38 1.162-.64.842-.34 2.806-.96 3.71-1.11 1.983-.32 3.043.93 3.337 1.37.25.38.63 1.53.693 3.11.09 2.25-.112 6.01-.137 6.61l-.647 8.24c-.136 2.26.049 4.58.36 6.91.494 3.7 1.285 7.39 2.093 10.84a2.094 2.094 0 01-1.396 2.6 2.091 2.091 0 01-2.597-1.4c-1.294-3.49-2.692-7.21-3.591-11.02-.077-.33-.149-.65-.216-.98zm1.593-20.47c.716.6 1.458 1.01 1.348.11-.037-.3-.711-.28-1.348-.11z"
                transform="matrix(.8207 0 0 1.02532 497.04 -9249.53)"
              ></path>
              <ellipse
                cx="669.775"
                cy="9344.25"
                fill="#23282C"
                rx="1.835"
                ry="2.107"
                transform="matrix(1.78319 0 0 1.98277 -147.159 -18195.3)"
              ></ellipse>
              <ellipse
                cx="669.775"
                cy="9344.25"
                fill="#23282C"
                rx="1.835"
                ry="2.107"
                transform="matrix(1.84275 0 0 2.049 -167.472 -18823.9)"
              ></ellipse>
              <path
                fill="#131F51"
                d="M74.762 47.941c-4.699 0-8.117-3.062-8.152-7.293h16.301c-.035 4.231-3.453 7.293-8.149 7.293zm0-25.145l4.859 14.59-9.726-.004 4.867-14.586zm-25.68 10.691a4.326 4.326 0 01-4.324-4.316c0-2.375 1.941-4.313 4.324-4.313s4.324 1.938 4.324 4.313a4.326 4.326 0 01-4.324 4.316zM58.25 81.62H39.77v-3.203a36.274 36.274 0 019.184-1.195c.019 0 .035.004.058.004.016 0 .035-.004.055-.004 3.082.004 6.164.402 9.183 1.195v3.203zM20.551 59.05l4.859-14.59 4.864 14.594-9.723-.004zm4.863 10.551c-4.699 0-8.117-3.066-8.152-7.297h16.305c-.039 4.231-3.457 7.297-8.152 7.297h-.001zm59.129-32.207h-1.48l-6.578-19.73c.008-.25-.035-.5-.149-.738a1.622 1.622 0 00-1.957-.852 1.698 1.698 0 00-.519.219l-18.449 8.715a7.593 7.593 0 00-6.328-3.403c-4.184 0-7.586 3.395-7.586 7.567 0 .359.035.711.082 1.055l-16.617 7.496a1.616 1.616 0 00-1.254 1.547L17.11 59.055h-1.48c-.899 0-1.629.726-1.629 1.625v1.558c0 6.051 4.906 10.617 11.414 10.617 6.504 0 11.41-4.566 11.41-10.617V60.68c0-.899-.731-1.625-1.629-1.625h-1.485l-6.289-18.871 15.297-6.903a7.61 7.61 0 004.661 3.262v37.484a39.32 39.32 0 00-9.707 1.605 1.617 1.617 0 00-1.161 1.555v6.063c0 .898.727 1.625 1.629 1.625h21.738c.903 0 1.633-.727 1.633-1.625v-6.063c0-.719-.476-1.351-1.164-1.555a39.359 39.359 0 00-9.707-1.605V36.578c3.437-.719 6.027-3.766 6.027-7.406 0-.379-.039-.75-.093-1.114l15.422-7.285-5.54 16.621h-1.48a1.63 1.63 0 00-1.629 1.625v1.563c0 6.051 4.906 10.613 11.414 10.613 6.504 0 11.41-4.563 11.41-10.613v-1.563a1.63 1.63 0 00-1.629-1.625z"
                transform="matrix(.60458 0 0 .75533 857.892 306.069)"
              ></path>
              <path
                fill="#23282C"
                d="M441.58 9191.05a1.12 1.12 0 01-1.122-1.12c0-.62.503-1.13 1.122-1.13 3.029-.11 6.027-.37 9.028-.61 3.03-.25 6.053-.52 9.089-.72 1.525-.1 3.054-.16 4.586-.22 7.539-.15 15.095.16 22.637.16 1.871 0 3.741-.02 5.609-.08 4.695-.12 9.372-.51 14.062-.71 1.184-.05 2.368-.09 3.554-.11a1.125 1.125 0 01.07 2.25c-1.165.05-2.327.12-3.489.21-4.697.34-9.375.87-14.079 1.14-2.839.16-5.683.25-8.53.29-6.577.09-13.166-.03-19.734.23-4.559.05-9.082.35-13.62.47-3.055.08-6.109.06-9.183-.05zM513.797 9186.12c.135-.61.735-.99 1.34-.86.604.14.986.74.851 1.34-.42 2.24-.827 4.91-1.248 7.75-.438 2.96-.863 6.09-1.281 9.09-.463 3.33-.925 6.5-1.263 9.1-.445 3-1.653 16.82-2.365 29.91-.417 7.68-.679 15.12-.447 19.97.037.62-.434 1.15-1.052 1.19a1.126 1.126 0 01-1.189-1.05c-.368-4.91-.346-12.44-.104-20.23.411-13.24 1.424-27.21 1.815-30.25.545-3.62 1.25-8.34 2.122-13.03.874-4.71 1.91-9.38 2.821-12.93zM434.255 9271.31a1.126 1.126 0 01-1.153-1.09 1.13 1.13 0 011.09-1.16c1.19-.08 2.362-.22 3.532-.37 2.801-.36 5.567-.84 8.389-1.19 2.326-.25 4.663-.47 7.01-.6 3.494-.2 7.002-.24 10.488-.31 8.159-.07 16.428.29 24.652.11 5.435-.11 10.849-.45 16.197-1.35.609-.11 1.194.29 1.305.9.112.61-.293 1.2-.902 1.31-5.437 1.08-10.956 1.61-16.505 1.87-8.227.4-16.515.22-24.681.48-4.03.07-8.085.19-12.124.37-1.725.08-3.447.15-5.163.27-2.833.17-5.617.5-8.431.67-1.229.07-2.46.1-3.704.09z"
                transform="matrix(.8207 0 0 1.02532 497.04 -9249.53)"
              ></path>
              <path
                fill="#23282C"
                d="M440.336 9189.47c.045-.62.584-1.08 1.202-1.04a1.13 1.13 0 011.037 1.2c-.168 4.13-.166 8.23-.313 12.34-.099 2.77-.279 5.53-.547 8.3-.177 1.62-.376 3.24-.617 4.85-.948 6.36-2.288 12.66-3.022 19.04a165.81 165.81 0 00-1.081 15.1c-.137 5.05-.066 10.11.197 15.16.04.62-.428 1.15-1.047 1.19a1.11 1.11 0 01-1.193-1.04c-.409-5.11-.63-10.23-.626-15.35.004-5.13.237-10.27.717-15.38.231-2.43.533-4.85.888-7.27.815-5.56 1.858-11.1 2.479-16.68.265-2.02.456-4.04.644-6.07.445-4.78.785-9.56 1.282-14.35zM550.271 9191.42a1.122 1.122 0 01-1.331-.86c-.129-.61.259-1.21.865-1.33 2.719-.68 5.397-1.48 8.114-2.14 1.854-.45 3.724-.82 5.624-1.08 2.57-.33 5.157-.55 7.755-.66 3.846-.16 7.707-.09 11.539-.1 4.159.02 8.332 0 12.503.04 2.795.03 5.588.08 8.375.2 2.022.09 4.042.22 6.062.37 4.671.36 9.337.82 14.01 1.1.618.03 1.099.55 1.071 1.17-.027.62-.552 1.1-1.171 1.07-4.691-.14-9.381-.48-14.073-.7-1.994-.09-3.988-.17-5.983-.2-2.758-.05-5.521-.04-8.286 0-4.167.05-8.336.17-12.491.23-3.799.03-7.625.06-11.439.17-2.516.07-5.028.16-7.524.4-1.816.16-3.606.44-5.39.76-2.748.49-5.475 1.08-8.23 1.56z"
                transform="matrix(.8207 0 0 1.02532 497.04 -9249.53)"
              ></path>
              <path
                fill="#23282C"
                d="M548.854 9190.93a1.117 1.117 0 011.045-1.19c.619-.04 1.154.42 1.195 1.04.303 2.98.712 5.94 1.092 8.91.381 2.99.763 5.98 1.041 8.97.375 4.04.552 8.1.479 12.16-.05 1.71-.181 3.42-.364 5.12-.413 3.87-1.071 7.72-1.436 11.58-.643 6.66-.865 13.36-1.377 20.03a178.55 178.55 0 01-.453 5.04 1.12 1.12 0 01-1.219 1.01 1.115 1.115 0 01-1.016-1.21c.125-1.66.221-3.33.301-4.99.322-6.71.363-13.43.822-20.12.275-3.88.831-7.76 1.164-11.65.14-1.62.241-3.25.258-4.87.054-2.96-.079-5.91-.247-8.86-.157-2.78-.365-5.56-.567-8.34-.307-4.21-.579-8.41-.718-12.63zM542.181 9270.62a1.129 1.129 0 01-1.28-.94c-.095-.61.326-1.19.938-1.28 3-.58 5.989-1.21 8.995-1.8 3.009-.59 6.021-1.17 9.046-1.67 4.055-.67 8.131-1.2 12.208-1.63 2.659-.26 5.332-.4 8.01-.46 3.97-.08 7.949-.01 11.905.02 3.629.04 7.271.03 10.906.15 2.448.09 4.89.24 7.322.51a1.125 1.125 0 01-.217 2.24c-2.379-.2-4.765-.27-7.154-.28-3.617-.02-7.237.11-10.844.18-3.926.07-7.875.11-11.812.29-2.597.12-5.188.3-7.762.61-3.521.39-7.028.93-10.543 1.43-3.528.51-7.056 1.01-10.587 1.49-3.044.42-6.087.78-9.131 1.14zM615.113 9264.89c-.163.6-.781.95-1.379.79-.597-.17-.95-.78-.786-1.38 1.136-4.74 1.775-9.53 2.287-14.33.309-2.91.564-5.81.808-8.72.369-4.4.735-8.8 1.128-13.18a751.53 751.53 0 011.806-17.05c.67-5.68 1.414-11.35 2.217-17 .078-.62.64-1.05 1.255-.97.614.07 1.05.64.972 1.25a795.079 795.079 0 00-1.708 17c-.512 5.67-.973 11.35-1.368 17.03-.33 4.39-.549 8.81-.936 13.21-.26 2.95-.585 5.9-1.025 8.83-.737 4.9-1.801 9.75-3.271 14.52zM656.524 9192.17c-.6.15-1.211-.21-1.363-.81-.153-.6.211-1.21.812-1.36 3.592-1.04 7.169-2.1 10.81-2.9 2.458-.55 4.943-.96 7.461-1.24 3.972-.36 7.965-.57 11.967-.62 5.948-.09 11.908.11 17.832.17l25.63.1a1.119 1.119 0 11.003 2.24l-25.63.6c-5.904.07-11.845.08-17.772.21-3.923.1-7.841.23-11.736.57-2.421.17-4.81.5-7.189.89-3.628.61-7.222 1.36-10.825 2.15zM728.854 9189.5a1.122 1.122 0 012.225.3c-.358 3.59-.644 7.18-.953 10.76-.309 3.59-.595 7.18-.903 10.76-.619 7.18-1.247 14.35-1.715 21.53a813.284 813.284 0 00-1.381 28.79 1.124 1.124 0 01-2.245-.04c.046-14.49.362-28.95 1.398-43.37.207-2.89.449-5.77.743-8.65.195-1.92.418-3.84.665-5.76.617-4.79 1.372-9.55 2.166-14.32zM721.958 9262.6a1.13 1.13 0 011.238 1 1.13 1.13 0 01-.994 1.24c-3.335.48-6.639 1.02-9.952 1.49-3.337.48-6.669.94-10.018 1.29-4.47.46-8.965.73-13.503.85-8.77.13-17.643-.31-26.467-.29-3.76.01-7.511.1-11.241.37a1.13 1.13 0 01-1.215-1.03 1.121 1.121 0 011.023-1.21c3.776-.38 7.578-.59 11.392-.7 8.803-.27 17.667-.03 26.414-.39 2.223-.09 4.432-.23 6.636-.38 3.558-.25 7.094-.58 10.634-.9 5.335-.47 10.669-.91 16.053-1.34zM654.263 9264.23a1.123 1.123 0 01-2.234-.21c.095-1.65.225-3.29.39-4.94.38-3.78.895-7.54 1.172-11.33.214-2.36.393-4.72.604-7.08.318-3.56.672-7.11 1.046-10.66.416-3.95.89-7.9 1.446-11.84.709-4.95 1.517-9.88 2.005-14.85.322-3.26.507-6.55.422-9.86a1.128 1.128 0 011.076-1.17c.619-.02 1.142.46 1.167 1.08.188 3.41.102 6.79-.133 10.17-.349 5.01-1.029 10-1.605 15.01-.945 7.85-1.444 15.74-2.176 23.61-.183 1.97-.409 3.94-.629 5.92-.202 1.64-.433 3.27-.7 4.91-.616 3.74-1.36 7.47-1.851 11.24zM648.648 9316.62c-.62 0-1.123-.51-1.123-1.12 0-.62.503-1.13 1.123-1.13 4.307-.14 8.606-.32 12.914-.42 2.869-.07 5.739-.12 8.609-.13 5.022-.03 10.044.03 15.066.08 11.72.11 23.435.31 35.155.47.619 0 1.122.51 1.122 1.13 0 .61-.503 1.12-1.122 1.12-11.72.16-23.435.36-35.155.47-5.022.05-10.044.11-15.066.08-2.87-.01-5.74-.06-8.609-.13-4.308-.1-8.607-.28-12.914-.42z"
                transform="matrix(.8207 0 0 1.02532 497.04 -9249.53)"
              ></path>
              <path
                fill="#23282C"
                d="M720.22 9317.24c.068-.62.623-1.06 1.239-.99.615.06 1.06.62.992 1.24-.225 3.1-.545 6.2-.951 9.29-.304 2.3-.647 4.6-1.01 6.89-.36 2.29-.754 4.56-1.103 6.85-1.229 7.16-2.242 14.45-2.887 21.78-.643 7.3-.924 14.63-.585 21.91a1.13 1.13 0 01-1.051 1.19 1.135 1.135 0 01-1.19-1.06c-.567-7.38-.543-14.83-.079-22.26.463-7.43 1.369-14.82 2.462-22.1.525-3.05 1.071-6.1 1.661-9.14.586-3.02 1.202-6.03 1.74-9.06.269-1.51.533-3.02.762-4.54zM652.218 9388.64a1.12 1.12 0 01-1.115-1.13c.004-.62.51-1.12 1.13-1.11 4.264-.14 8.521-.28 12.789-.32 2.552-.02 5.105-.01 7.657.01 3.822.03 7.643.13 11.464.13 1.024.01 2.046-.03 3.066-.1 2.474-.15 4.939-.44 7.416-.54 2.335-.09 4.675-.15 7.018-.19 3.503-.06 7.008-.07 10.503-.07.62-.02 1.132.48 1.144 1.1.012.61-.481 1.13-1.101 1.14-3.481.13-6.972.26-10.458.44-2.32.12-4.636.25-6.946.42-2.453.18-4.891.53-7.339.76-1.089.1-2.179.17-3.274.2-5.334.07-10.67.13-16.004 0-2.662-.06-5.32-.19-7.98-.32-2.66-.12-5.311-.29-7.97-.42zM647.241 9316.2c.018-.62.535-1.1 1.154-1.09.62.02 1.108.54 1.089 1.16.019 2.62-.096 5.21-.308 7.8-.313 3.83-.82 7.64-1.159 11.49-.602 5.27-.994 10.53-1.291 15.8a386.23 386.23 0 00-.582 15.88c-.067 3.79-.242 7.84-.023 11.82.144 2.6.453 5.17 1.087 7.61a1.12 1.12 0 01-.785 1.38 1.114 1.114 0 01-1.38-.78c-.748-2.57-1.162-5.28-1.395-8.04-.342-4.04-.287-8.15-.331-12-.05-5.35-.023-10.69.195-16.02.218-5.35.628-10.68 1.203-16.02.604-4.46 1.368-8.87 1.936-13.32.24-1.88.463-3.76.59-5.67zM543.491 9399.37a1.12 1.12 0 11-.024-2.24c3.33-.16 6.673-.29 10.016-.46 2.201-.11 4.398-.24 6.585-.46 2.238-.2 4.471-.45 6.707-.7 5.246-.57 10.492-1.2 15.742-1.75 1.888-.2 3.776-.37 5.665-.53 6.001-.49 12.02-.37 18.026-.64 1.48-.07 2.958-.15 4.436-.28a1.122 1.122 0 11.232 2.23c-1.506.18-3.015.32-4.525.43-5.958.45-11.941.5-17.888 1.17-6.551.7-13.075 1.75-19.624 2.52-2.831.34-5.669.6-8.509.81-2.255.13-4.516.2-6.781.18-3.359-.03-6.713-.19-10.058-.28z"
                transform="matrix(.8207 0 0 1.02532 497.04 -9249.53)"
              ></path>
              <path
                fill="#23282C"
                d="M611.243 9312.67a1.118 1.118 0 011.081-1.16c.619-.03 1.14.46 1.162 1.08.24 3.53.437 7.06.547 10.59.11 3.54.164 7.07.152 10.6-.013 4.23-.114 8.46-.222 12.7-.162 6.32-.391 12.65-.471 18.98-.086 5.68-.778 11.32-.359 16.81.27 3.54 1.004 7.02 2.723 10.39.288.55.077 1.23-.471 1.52-.549.29-1.228.07-1.516-.48-1.963-3.61-2.873-7.37-3.263-11.21-.564-5.55-.01-11.28-.063-17.04-.038-5.29-.008-10.58.059-15.87.039-3.09.076-6.17.138-9.25.062-3.07.125-6.15.206-9.23.162-6.14.356-12.27.297-18.43z"
                transform="matrix(.8207 0 0 1.02532 498.854 -9249.01)"
              ></path>
              <path
                fill="#23282C"
                d="M544.062 9316.63a1.122 1.122 0 01-.104-2.24c3.725-.31 7.407-.84 11.121-1.19 1.615-.15 3.233-.25 4.859-.32 2.144-.06 4.289-.12 6.435-.12 8.53-.02 17.064.34 25.588.15 4.159-.07 8.301-.22 12.453-.28 1.788-.03 3.576-.04 5.369-.02.619 0 1.124.5 1.127 1.12a1.12 1.12 0 01-1.117 1.12c-1.772.04-3.539.11-5.304.19-4.148.2-8.282.48-12.436.68-4.284.2-8.571.29-12.862.33-4.482.04-8.965.07-13.446.08-1.914.01-3.828-.01-5.741.02l-15.942.48zM544.824 9322.72c.061-.62.612-1.07 1.228-1.01.617.07 1.067.62 1.006 1.23-.366 5.24-.976 10.49-1.42 15.74-.187 2.22-.365 4.44-.435 6.66-.188 3.89-.305 7.81-.372 11.73-.068 3.91-.088 7.83.004 11.72.087 3.9.528 7.78.734 11.67.052 1 .089 1.99.102 2.99.013.98-.004 1.95-.042 2.93-.146 3.79-.592 7.57-.549 11.37.016.62-.474 1.13-1.093 1.15-.62.02-1.135-.47-1.151-1.09-.15-3.83.189-7.66.23-11.5.01-.93.001-1.86-.037-2.79-.04-.96-.104-1.92-.18-2.88-.31-3.92-.843-7.81-1.027-11.75-.177-3.93-.271-7.89-.26-11.86.012-3.95.129-7.91.289-11.84.13-2.28.332-4.57.621-6.84.666-5.23 1.675-10.42 2.352-15.63zM437.617 9316.98a1.13 1.13 0 01-1.123-1.13c0-.62.503-1.12 1.123-1.12 5.16-.16 10.311-.35 15.472-.42 2.578-.03 5.156-.04 7.734-.02 2.576.01 5.152.07 7.729.1 3.247.06 6.528-.01 9.793.04 1.428.02 2.853.07 4.27.17 6.893.46 13.711 1.66 20.588 2.33 1.694.16 3.392.29 5.095.37.619.02 1.106.54 1.087 1.16-.019.62-.537 1.1-1.157 1.08-2.614-.04-5.218-.2-7.819-.42-5.987-.51-11.949-1.31-17.953-1.55-1.37-.06-2.747-.07-4.126-.06-3.269.03-6.553.17-9.804.18-2.578-.01-5.155 0-7.732-.03-2.576-.02-5.152-.07-7.728-.14-5.153-.14-10.295-.38-15.449-.54z"
                transform="matrix(.8207 0 0 1.02532 497.04 -9249.53)"
              ></path>
              <path
                fill="#23282C"
                d="M509.274 9317.45c0-.62.503-1.12 1.122-1.12.62 0 1.123.5 1.123 1.12l1.024 16.64c.138 3.55.246 7.1.268 10.66.034 5.31-.081 10.62-.121 15.93-.079 6.77-.487 13.42-.53 20.09-.029 4.39.096 8.79.596 13.24a1.122 1.122 0 01-2.227.28c-.634-4.53-.893-9.02-.98-13.5-.129-6.68.124-13.34.037-20.11l-.247-26.49c-.022-3.35-.128-6.68-.152-10.01-.016-2.24.01-4.48.087-6.73zM441.631 9397.96a1.12 1.12 0 110-2.24c4.426-.15 8.846-.36 13.276-.5 1.77-.05 3.541-.1 5.312-.13 2.657-.03 5.314-.05 7.971-.04 13.304.01 26.606.25 39.889.73.619.01 1.111.53 1.097 1.15a1.114 1.114 0 01-1.148 1.09c-10.834-.08-21.672.1-32.515.26-4.648.06-9.296.15-13.945.15-2.658.01-5.316-.02-7.973-.08-3.993-.08-7.976-.25-11.964-.39zM440.493 9323.8c0-.62.503-1.12 1.123-1.12.619 0 1.122.5 1.122 1.12.128 3.67.289 7.33.383 11.01.093 3.67.164 7.34.178 11.01.027 7.34-.127 14.68-.19 22.02-.07 5.07.153 10.32.055 15.53-.066 3.54-.277 7.05-.815 10.48a1.12 1.12 0 01-1.269.95 1.127 1.127 0 01-.954-1.27c.422-3.33.518-6.74.483-10.17-.053-5.21-.417-10.45-.487-15.52-.063-7.34-.217-14.68-.189-22.02.014-3.67.084-7.34.178-11.01.093-3.68.255-7.34.382-11.01z"
                transform="matrix(.8207 0 0 1.02532 497.04 -9249.53)"
              ></path>
              <path
                fill="#F89D36"
                d="M688.147 9336.4l.001.01c.025.27-.17.5-.434.53-.622.06-1.234.19-1.841.36-1.47.39-2.908.99-4.355 1.37a15.12 15.12 0 01-5.507.45c-1.842-.2-3.64-.74-5.301-1.66-2.655-1.47-4.292-5.19-3.785-8.05.37-2.09 1.803-3.77 4.705-3.93 1.924-.1 3.9.12 5.745.73 1.861.61 3.586 1.61 5.004 2.98.718.7 1.233 1.54 1.706 2.39.435.78.834 1.58 1.384 2.26.422.53.933.99 1.633 1.31.201.09.435.15.677.19.412.08.843.11 1.198.14a.481.481 0 11-.059.96c-.234-.01-.498-.02-.771-.04zm-1.489-.29c-.874-.36-1.528-.9-2.073-1.52-1.166-1.34-1.75-3.16-3.127-4.43-1.291-1.21-2.856-2.05-4.526-2.58a14.736 14.736 0 00-5.228-.67c-1.242.06-2.128.47-2.694 1.13-.642.76-.874 1.79-.814 2.88.116 2.11 1.315 4.42 3.124 5.45 1.505.86 3.142 1.39 4.822 1.59 1.689.21 3.421.09 5.109-.33 1.45-.36 2.896-.93 4.371-1.3.343-.08.689-.16 1.036-.22z"
                transform="matrix(.8207 0 0 1.02532 498.077 27.219) translate(-1.264 -9047.63)"
              ></path>
              <path
                fill="#F89D36"
                d="M671.224 9331.3l.117-.09c.247-.2.472-.44.654-.7l.521-.77c.047-.07.109-.25.155-.33a.804.804 0 01.245-.26c.232-.14.454-.15.652-.06.125.05.334.15.419.47.085.33.119.72.112 1.14-.006.39-.042.79-.072 1.18.155-.03.303.04.414.13.066.05.232.24.249.7a.478.478 0 01-.334.49c-.079.33-.158.7-.227.92-.099.31-.292.45-.374.49-.203.11-.396.07-.585-.05-.073-.05-.205-.19-.265-.45-.068-.29-.103-1.04-.108-1.09-.037-.34-.032-.76-.024-1.19a3.958 3.958 0 01-1.768 1.15c-.294.08-.512.03-.674-.08a.844.844 0 01-.363-.66c-.006-.12.003-.28.02-.44.008-.07.033-.14.026-.19-.045-.37-.101-.71-.131-1.06a5.93 5.93 0 01-.026-.75.482.482 0 01.452-.51c.265-.01.493.19.508.45.033.22.086.43.139.63.081.31.175.61.268.93zm1.439-1.35c-.001 0-.002 0-.002-.01 0 .01.001.01.002.01zm-1.465 1.91c-.014.14-.004.25.095.24.139-.02.033-.14-.095-.24zm-.617-.18c-.004 0-.008.01-.012.01.004 0 .008-.01.012-.01zM676.007 9329.55c-.008-.02-.021-.04-.008-.03.016 0 .017.01.008.03zm0 0c.005.01.008.02.006.02-.01.04.012.07.027.1a.484.484 0 01.277-.59c.246-.1.527.02.628.26.102.14.067.47-.056.91-.037.13-.085.27-.141.41.57-.07 1.359-.33 1.503-.34a.485.485 0 01.127.96c-.216.05-1.289.43-1.954.55-.261.04-.479.02-.622 0-.208-.04-.341-.16-.439-.25-.185-.19-.328-.6-.108-1.09.059-.14.144-.29.25-.43.084-.12.176-.22.265-.33.067-.07.208-.14.237-.18zm.608 1.37c-.052.08-.094.15-.045.16.102.02.093-.06.045-.16zm-.155-.25a.492.492 0 01-.047-.06c-.042-.05-.25-.29-.267-.15-.017.15.112.21.314.21zM677.203 9334.74a.493.493 0 01-.036.12 6.08 6.08 0 01-.196.42c-.211.4-.441.75-.5.86a.48.48 0 01-.602.31.473.473 0 01-.317-.6c.005-.08.006-.28.037-.55.02-.17.049-.36.098-.55.071-.27.182-.54.287-.74.123-.24.262-.41.372-.49.193-.15.376-.22.539-.21.29.02.679.18 1.008.54.408.44.807 1.12.972 1.4.155.22.106.52-.109.67a.473.473 0 01-.671-.11c-.142-.16-.558-.77-.882-1.07zm-.103-.08c-.134-.1-.242-.12-.29 0-.011.03.052.03.077.03a.81.81 0 00.213-.03zm.138-.06c.052-.02.108-.04.069-.07-.033-.02-.053.01-.069.07zM680.043 9332.82c.063.34.142.67.239.99.063.21.131.43.206.63.126-.05.249-.1.316-.12.205-.04.35-.02.401 0 .204.08.326.19.386.32a.65.65 0 01.052.42c-.022.08-.061.2-.138.31-.04.06-.112.11-.132.16l-.366.98a.486.486 0 01-.599.33.487.487 0 01-.323-.6l.13-.51c-.419.06-.633-.24-.699-.36-.195-.37-.366-.74-.514-1.12-.148-.39-.267-.78-.369-1.18-.023-.11-.164-.65-.168-.87a.787.787 0 01.379-.72c.186-.09.523-.17.936-.08.296.07.66.2.995.35.37.16.69.34.839.4.258.06.416.33.353.58a.487.487 0 01-.582.36c-.184-.02-.625-.11-1.09-.2-.075-.02-.162-.04-.252-.07zm.844 2.6c.061.03.24.12.208.02-.021-.07-.103-.06-.208-.02zm-.545-.92c-.149-.12-.293-.19-.27 0 .009.08.128.06.27 0zm-.739-1.81c-.113-.01-.188 0-.185.08.003.06.107-.02.139-.04.011-.01.027-.02.046-.04zm.295-.27c.118-.14.18-.26.004-.26-.073.01-.05.13-.004.26z"
                transform="matrix(.8207 0 0 1.02532 498.077 27.219) translate(-1.264 -9047.63)"
              ></path>
              <path
                fill="#F15F52"
                d="M574.599 9323.8c-2.372 7.62-4.829 15.38-8.232 22.61-3.521 7.48-8.692 16.41-6.002 25.01 2.017 6.44 8.154 12.93 14.695 14.82 9.135 2.64 17.201-4.3 17.558-13.23.388-9.7-4.749-19.78-9.438-28.01-3.398-5.97-7.399-12.58-7.99-19.57"
                transform="matrix(.74331 0 0 .92865 541.341 -8346.5)"
              ></path>
              <path
                fill="#7C1F14"
                d="M602.272 9355.99c.019.71-.542 1.3-1.253 1.32a1.288 1.288 0 01-1.324-1.25c-.194-2.18-.509-4.46-.863-6.78-.335-2.2-.76-4.43-1.251-6.63-.98-4.41-2.318-8.72-4.567-12.33-2.935-4.71-7.275-8.26-13.794-9.31-.705-.09-1.2-.74-1.104-1.45.095-.7.745-1.2 1.45-1.1 7.558.83 12.792 4.67 16.376 9.96 2.623 3.88 4.405 8.55 5.407 13.42.384 1.88.636 3.77.789 5.66.236 2.92.217 5.78.134 8.49z"
                transform="matrix(.8207 0 0 1.02532 438.106 -11.048) translate(150.351 -7804.82) scale(.87093)"
              ></path>
              <path
                fill="#7C1F14"
                d="M577.927 9320.82c.117.14.24.27.367.4 1.682 1.72 3.891 3.24 5.299 4.86.496.5.485 1.32-.024 1.82-.51.49-1.327.48-1.823-.03-1.56-1.43-3.912-2.65-5.741-4.16-.994-.83-1.815-1.75-2.407-2.75-.063-.11-.53-1.71.914-2.59.483-.3 1.716-.97 1.866-1.05.976-.5 1.936-1.03 2.946-1.45 1.516-.64 3.065-1.09 4.611-1.65a1.292 1.292 0 011.157 2.31c-1.141.76-2.237 1.54-3.406 2.26-.571.36-1.152.69-1.742 1.01-.585.32-1.186.6-1.775.91-.034.02-.121.06-.242.11zm-1.072-1.57h-.001.001z"
                transform="matrix(.8207 0 0 1.02532 438.106 -11.048) translate(150.351 -7804.82) scale(.87093)"
              ></path>
              <g>
                <path
                  fill="#7C1F14"
                  d="M550.738 9349.96a1.123 1.123 0 112.167.59c-.809 3.55-1.073 7.56-.898 11.56.112 2.57.41 5.14.985 7.58.99 4.22 2.736 8.09 5.663 10.85 1.689 1.61 4.65 3.39 7.906 4.78 2.998 1.28 6.243 2.24 9.012 2.38.619.02 1.106.54 1.087 1.15a1.122 1.122 0 01-1.156 1.09c-3.024-.03-6.609-.91-9.93-2.18-3.669-1.4-7.001-3.3-8.939-5.02-4.244-3.81-6.73-9.53-7.552-15.71-.38-2.85-.393-5.79-.109-8.65.293-2.96.929-5.82 1.764-8.42z"
                  transform="matrix(.8207 0 0 1.02532 438.106 -11.048) translate(71.545 -9009.16)"
                ></path>
                <path
                  fill="#7C1F14"
                  d="M574.117 9388.51c-.448-.7-.907-1.39-1.314-2.12-.425-.76-.786-1.53-1.166-2.31a1.123 1.123 0 111.865-1.25l3.331 3.74c.063.08.631.78.842 1.08.821 1.14-.03 2.23-.101 2.3-1.514 1.39-3.108 2.11-4.795 2.36-2.27.35-4.662-.12-7.09-.42a1.12 1.12 0 01-1.047-1.19c.041-.62.576-1.09 1.194-1.05 2.189.02 4.358.22 6.351-.28a5.914 5.914 0 001.93-.86zm1.095-.94zm-.57 1.44c-.155.55-.167.96.31.61.149-.11-.066-.37-.31-.61z"
                  transform="matrix(.8207 0 0 1.02532 438.106 -11.048) translate(71.545 -9009.16)"
                ></path>
              </g>
              <g>
                <path
                  fill="#5D3B2B"
                  d="M403.485 9670.82c5.994-10.35 10.628-18.39 15.759-29.2 1.393-2.93 5.211-14.29 5.441-17.52.66-9.26-1.557-9.84-2.412-19.1-.545-5.9-2.53-17.63-2.071-23.56.657-8.49.257-16.83.899-25.32.724-9.56 1.736-14.3 5.763-19.57 4.025-5.27 7.486-1.95 12.611-4.28 2.979-1.35 9.153-6.26 12.857-5.35 3.95.96 6.339 4.92 10.109 6.04 1.014.3 3.212-1.49 4.015-2.1 2.791-2.15 5.759-6.05 9.573-6.23 4.478-.21 8.419 5.07 11.85 7.21.409.26 2.184-1.05 2.579-1.32 2.037-1.39 4.158-3.83 6.715-4.33 2.561-.5 6.068.12 8.396 1.34.887.47 3.53 4.59 4.575 4.48 3.639-.37 7.533-7.35 9.71-9.92 6.686-7.91 11.275-17.11 18.524-24.59 2.521-2.6 4.921-4.96 7.799-7.15.834-.63 2.147-2.03 3.329-1.61 4.887 1.76 3.902 8.71 2.818 12.55-3.35 11.84-10.416 22.98-16.096 33.79-6.22 11.84-13.205 27.44-17.422 40.25-3.118 9.47-8.303 17.99-13.159 26.74-2.959 5.34-5.323 9.59-9.306 14.04-5.453 6.1-15.628 20.2-20.82 26.54-8.959 10.96-24.728 35.86-32.136 47.83"
                  transform="matrix(.8207 0 0 1.02532 492.529 -9261.95)"
                ></path>
              </g>
              <g>
                <path
                  fill="#5D3B2B"
                  d="M831.711 9547.93s-6.782 11.53-10.608 17.11c-4.416 6.44-15.89 21.53-15.89 21.53-12.077-20.66-13.909-38.86-32.351-55-7.204-6.31-7.025-3.1-15.192-8.5-3.808-2.52-11.197-6.95-14.194-10.39-3.705-4.26-8.571-6.5-15.888-17.29-3.094-4.57-2.921-7.12-.304-11.81.971-1.75 3.282-2.67 3.861-4.57 2.142-7.06-4.83-21.24-6.936-26.58-5.967-15.13-11.493-29.47-13.64-45.75-.316-2.39-.369-7.83 1.349-10.12 6.579-8.78 8.112-1.55 11.023 5.41 6.183 14.78 5.977 14.65 13.378 28.88 1.333 2.56 2.558 5.18 3.893 7.74.452.86.492 2.53 1.469 2.54 1.224.01 1.804-1.66 2.687-2.51 1.95-1.87 5.199-5.72 8.173-6.26 3.596-.66 7.262 2.53 10.83 1.73 5.046-1.12 4.267-4.99 8.949-6.64 4.401-1.55 5.905 1.49 9.839 2.14 3.51.58 7.095-1.3 10.586.22 3.224 1.41 2.956 4.56 3.523 7.28 1.461 7.01 2.88 14.03 4.463 21.02 1.669 7.37 3.899 14.6 5.289 22.03 1.189 6.34-.812 9.31 1.384 15.55 2.036 5.79 6.901 10.82 9.561 16.23 5.89 12 11.196 23.15 14.746 36.01z"
                  transform="matrix(.8207 0 0 1.02532 487.096 -9233.52)"
                ></path>
              </g>
              <g>
                <path
                  fill="#376D24"
                  d="M446.389 9268.63c.229-2.09.659-4.25 1.564-6.15 1.604-3.37 4.162-6.15 5.775-9.5.572-1.19 1.494-5.94 3.553-4.4 2.034 1.52 2.585 4.42 2.931 6.77.589 3.99 1.11 7.87 2.493 11.68"
                  transform="matrix(.8207 0 0 1.02532 497.04 -9249.53)"
                ></path>
              </g>
            </g>
          </g>
        </g>
      </g>
    </svg>