    <svg
      xmlns="http://www.w3.org/2000/svg"
      fillRule="evenodd"
      strokeLinejoin="round"
      strokeMiterlimit="2"
      clipRule="evenodd"
      viewBox="0 0 650 717"
    >
      <g transform="translate(0 -1753.87)">
        <g transform="matrix(.50709 0 0 .89518 0 1753.87)">
          <path fill="none" d="M0 0H1280V800H0z"></path>
          <g transform="matrix(1.97206 0 0 1.11709 -1244.23 -50.548)">
            <path
              fill="url(#_Linear1)"
              d="M565.115 364.516c50.75 0 96.551 43.263 96.551 96.551 0 53.288-30.877 96.551-96.551 96.551V364.516z"
              transform="translate(387.222 -52.342) scale(1.09964)"
            ></path>
            <path
              fill="url(#_Linear2)"
              d="M565.115 364.516c50.75 0 96.551 43.263 96.551 96.551 0 53.288-30.877 96.551-96.551 96.551V364.516z"
              transform="matrix(-.96406 0 0 .94808 1413 -46.57)"
            ></path>
            <path
              fill="#fff"
              d="M651.002 307.688a2.633 2.633 0 014.098-3.304 75.098 75.098 0 013.55 4.599 60.949 60.949 0 013.164 4.942c3.556 6.22 3.137 11.291 1 15.834-2.211 4.699-6.636 8.805-10.53 13.162-3.105 3.474-5.925 7.092-5.812 11.784.132 6.174 3.583 13.482 4.606 20.324.569 3.809.449 7.49-.811 10.868-.755 2.013-1.878 3.561-3.215 4.847-1.815 1.744-4.097 2.929-6.368 4.201-2 1.121-4.062 2.291-5.049 4.984-.836 2.258.393 4.196 1.593 6.186 1.963 3.257 4.323 6.526 5.171 10.02.558 2.295.56 4.682-.316 7.214-1.31 3.761-3.335 6.021-5.685 7.565-2.164 1.423-4.662 2.179-7.228 2.886-2.385.658-4.905 1.178-6.811 3.276-2 2.198-.746 4.467.02 6.746 1.033 3.075 1.92 6.201 1.327 9.307-.38 1.993-1.296 4.015-3.178 6.009-3.65 3.869-7.554 5.232-11.588 5.286-4.09.056-8.378-1.402-12.678-2.961-3.374-1.224-6.754-2.535-10.085-2.54-1.622-.002-2.659.258-3.274 1.045-1.601 2.046-1.636 5.345-2.57 8.524-.706 2.399-1.715 4.701-3.441 6.2-1.333 1.157-3.055 1.961-5.432 2.005-2.776.052-5.2-.648-7.449-1.755-3.921-1.932-7.075-5.533-11.495-6.45-3.44-.715-5.131-.203-5.523 1.745-.935 4.65 1.915 11.853 3.2 15.829.306.95.8 1.89 1.049 2.854.19.734.285 1.478.235 2.237-.162 2.46-1.154 4.265-2.608 5.597-1.808 1.658-4.466 2.542-7.114 2.859-3.335.398-6.67-.439-9.981-1.605-2.623-.923-5.229-2.058-7.842-2.519-1.8-.317-3.604-.299-5.403.61-1.84.93-2.643 2.195-2.814 3.694-.347 3.03.969 6.552 1.684 9.829.735 3.366.909 6.528-.296 9.057-.553 1.16-1.693 2.255-3.151 3.035-1.624.87-3.606 1.396-4.823 1.509-3.639.338-6.738-.007-9.892.27-1.738.153-3.499.517-5.414 1.414-1.267.592-1.277 2.067-.921 3.334.413 1.465 1.349 2.972 2.774 3.094a2.632 2.632 0 01-.414 5.247c-3.49-.253-6.456-3.283-7.51-6.856-1.124-3.808-.07-7.91 3.727-9.745a20.446 20.446 0 015.397-1.747c3.789-.678 7.37-.188 11.695-.644.467-.049 1.133-.231 1.797-.492.604-.237 1.326-.404 1.536-.858.895-1.938.058-4.432-.62-7.04-.886-3.409-1.822-6.945-1.506-10.049.341-3.346 1.904-6.327 5.98-8.451 3.055-1.592 6.123-1.79 9.207-1.286 2.939.481 5.898 1.666 8.855 2.666 2.381.805 4.755 1.517 7.139 1.202 1.132-.15 2.3-.404 3.19-.995.481-.319.801-.807.838-1.516l-1.017-2.657c-1.604-4.785-4.669-13.544-3.599-19.172.513-2.701 1.834-4.837 4.045-6.191 2.039-1.248 5.065-1.862 9.462-.997 5.002.984 8.753 4.738 13.204 6.873 1.276.612 2.641 1.033 4.209.987.493-.014.837-.166 1.066-.454.568-.714.81-1.7 1.081-2.657 1.174-4.153 1.646-8.305 3.704-10.993 1.736-2.269 4.366-3.9 9.006-3.943 4.147-.038 8.416 1.369 12.631 2.852 3.419 1.204 6.787 2.498 10.028 2.428 2.154-.047 4.199-.862 6.132-2.942 2.088-2.248 1.142-4.512.397-6.717-1.013-3.002-2.04-6.014-1.731-8.964.224-2.141 1.048-4.285 2.951-6.397 2.55-2.83 5.653-4.168 8.856-5.129 2.312-.693 4.695-1.077 6.641-2.367 1.087-.72 1.95-1.824 2.551-3.571.808-2.326-.312-4.328-1.478-6.321-1.928-3.295-4.3-6.528-5.165-9.914-.6-2.35-.607-4.773.357-7.328.743-1.956 1.753-3.51 2.937-4.795 1.861-2.023 4.157-3.361 6.471-4.598 2.164-1.158 4.485-2.037 5.491-4.61.868-2.205.871-4.633.545-7.145-.926-7.138-4.231-14.841-4.235-21.267.013-6.47 3.539-11.607 7.949-16.278 3.593-3.805 7.778-7.264 9.882-11.411 1.498-2.951 1.728-6.274-.485-10.445a55.162 55.162 0 00-2.724-4.583 68.948 68.948 0 00-3.147-4.377z"
              transform="rotate(9.109 888.023 3730.283)"
            ></path>
            <path
              fill="#3AAEA3"
              d="M137.753 101.643a2.633 2.633 0 014.788 2.187c-1.526 3.547-2.635 7.422-3.42 11.364a74.338 74.338 0 00-1.365 11.883 59.984 59.984 0 00.012 5.018 31.13 31.13 0 00.576 4.742c2.754 13.869 10.665 23.755 21.039 30.61 6.358 4.202 13.643 7.266 21.303 9.394 11.552 3.21 23.947 4.314 35.335 3.73 14.929-.723 30.247-4.733 45.519-6.131 6.848-.627 13.685-.746 20.477.117 10.6 1.356 20.444 5.297 28.136 11.501 7.989 6.443 13.694 15.291 15.563 26.213 1.081 6.32.705 12.707-.384 18.396-1.467 7.661-4.204 14.046-6.238 17.292a2.633 2.633 0 01-4.483-2.758c1.766-2.926 4.062-8.678 5.257-15.533.884-5.075 1.151-10.76.097-16.364-1.76-9.355-6.791-16.869-13.741-22.294-6.879-5.369-15.637-8.68-25.014-9.733-6.306-.713-12.642-.494-18.981.172-15.37 1.615-30.756 5.827-45.789 6.75-12.192.716-25.5-.295-37.873-3.734-8.482-2.357-16.533-5.839-23.497-10.606-11.802-8.078-20.547-19.773-23.314-35.799a36.225 36.225 0 01-.459-4.63c-.081-2.229.005-4.471.166-6.69.305-4.178.938-8.539 1.974-12.802 1.042-4.289 2.468-8.479 4.316-12.295z"
              transform="translate(593.165 29.382)"
            ></path>
            <path
              fill="#fff"
              d="M94.401 281.621a2.632 2.632 0 011.825-4.937c21.789 7.497 33.874 17.099 40.732 28.11 5.509 8.845 7.668 18.655 8.618 29.15 1.203 13.283.328 27.753 2.863 42.985 2.48 15.229 10.284 21.696 19.756 26.716 10.525 5.578 22.879 9.605 33.214 19.852 6.635 6.578 12.485 15.668 16.452 29.34a2.633 2.633 0 01-5.04 1.521c-8.423-26.867-24.296-34.114-38.717-40.536-8.758-3.9-16.98-7.611-23.167-14.367-4.577-4.998-8.078-11.643-9.824-21.265-2.742-15.413-2.235-30.072-3.424-43.54-.823-9.313-2.485-18.014-7.129-26.006-5.944-10.231-16.618-19.284-36.159-27.023z"
              transform="translate(619.791 1.067)"
            ></path>
            <path
              fill="#3AAEA3"
              d="M156.1 481.234a2.632 2.632 0 01-2.767-4.478c6.971-4.7 14.53-5.878 20.475-4.084 6.95 2.097 11.935 8.213 12.06 18.128-.024 4.475 3.063 5.636 6.407 6.924 4.919 1.895 10.534 3.737 14.482 8.335 1.784 2.078 3.267 4.691 4.186 8.119 2.041 7.703-.02 12.51-2.852 16.406-1.808 2.49-4.107 4.423-5.159 6.854-.722 1.666-.462 3.57 1.256 6.355 3.024 4.932 7.021 5.797 10.56 7.402 3.364 1.524 6.475 3.46 8.789 7.855 1.881 3.573 3.27 8.941 3.581 17.529a2.632 2.632 0 01-5.256.277c-.702-10.161-2.62-14.972-5.448-17.6-2.466-2.291-5.49-2.875-8.442-4.151-3.296-1.426-6.539-3.449-9.376-7.757-2.011-3.07-2.767-5.65-2.868-7.873-.168-3.682 1.538-6.584 3.804-9.484 2.586-3.311 6.243-6.687 4.156-13.787-1.716-5.94-5.967-7.972-10.048-9.553-4.688-1.817-9.266-3.27-12.084-6.273-2.102-2.24-3.486-5.231-3.381-9.671.223-6.068-2.364-10.07-6.528-11.625-4.373-1.634-10.042-.954-15.547 2.152z"
              transform="translate(594.491 10.007)"
            ></path>
            <path
              fill="url(#_Linear3)"
              d="M296.82 239.796H466.24199999999996V548.6990000000001H296.82z"
              transform="matrix(1 0 0 1.00824 595.487 23.595)"
            ></path>
            <path
              fill="url(#_Linear4)"
              d="M298.943 547.617l-81.128 38.793V195.866l81.128 40.18v311.571z"
              transform="translate(593.364 29.418)"
            ></path>
            <path
              fill="#BCEBED"
              d="M422.326 100.692a2.633 2.633 0 015.015 1.601c-5.618 18.629-2.03 37.156 6.406 53.72 8.473 16.636 21.873 31.329 36.429 41.965 13.688 10.213 30.086 19.887 43.261 32.235 9.163 8.587 16.786 18.447 21.11 30.504 5.223 14.579 4.843 30.548.03 45.151-4.771 14.477-13.87 27.601-26.002 36.647-6.272 4.676-16.869 8.241-27.915 8.289-9.718.042-19.75-2.598-27.469-9.365a2.633 2.633 0 013.442-3.983c6.776 5.773 15.537 7.847 23.963 7.692 9.651-.179 18.908-3.292 24.331-7.455 10.986-8.432 19.124-20.564 23.319-33.866 4.164-13.203 4.423-27.581-.436-40.651-4.046-10.894-11.145-19.697-19.527-27.414-13.079-12.041-29.284-21.452-42.824-31.419-15.325-11.519-29.509-27.271-38.109-45.164-8.739-18.179-11.771-38.482-5.024-58.487z"
              transform="rotate(28.738 800.16 1396.649)"
            ></path>
            <g transform="translate(613.345 56.818)">
              <path
                fill="#B57558"
                d="M346.396 392.046c-1.346-1.26-14.593-10.573-16.467-13.467-1.873-2.894.275-11.114-.12-12.811-.394-1.698-1.331-3.649-1.995-2.57-.343.56-.476 3.187-1.358 5.258-.818 1.923-2.401 3.32-2.401 3.32s-3.164-.779-7.078-5.508c-2.373-2.868-5.939-6.377-6.747-6.057-.808.321-1.11 3.887.955 7.731s13.017 16.114 13.017 16.114l20.376 18.233s3.163-8.984 1.818-10.243z"
                transform="translate(3.654 29.642)"
              ></path>
              <path
                fill="#455891"
                d="M448.737 641.843c-2.356.326-8.658-1.455-10.802-.428-1.051.504-1.559 1.09-3.906 1.833-2.718.859-4.919 1.254-8.086 2.009-3.683.879-7.251.522-7.033 2.418.294 2.569 7.447 4.299 9.859 5.032 5.107 1.552 11.423 2.245 19.896-.675 3.288-1.134 2.336-3.136 1.449-5.828-1.123-3.412-.399-4.915-1.377-4.361z"
                transform="translate(8.449 13.147)"
              ></path>
              <path
                fill="#455891"
                d="M392.992 643.367l-9.887-3.745c-1.815.266-3.631.521-5.445.789-1.609.237-3.171.778-4.754 1.136-1.113.251-2.212.574-3.313.874-.831.227-1.675.392-2.513.591-.558.132-1.11.287-1.668.417-.449.105-.9.204-1.352.297-.342.069-.682.144-1.021.226-1.418.341-4.822 1.555-2.965 3.393.197.194.421.357.649.512.383.262.79.486 1.211.681.952.44 1.969.69 2.984.939 1.597.392 3.228.613 4.853.861 3.061.467 6.148.711 9.204 1.187 4.173.651 8.145 2.003 12.248 2.925 1.117.25 2.227.506 3.357.689.388.063.943.234 1.324.155.254-.053.435-.554.498-.738.287-.834.206-1.777.119-2.64-.143-1.422-.543-2.817-.952-4.18-.557-1.856-.792-3.271-2.577-4.369"
                transform="rotate(-4.038 557.558 534.037)"
              ></path>
              <path
                fill="#B57558"
                d="M397.057 332.499c-3.012 1.421-4.452 4.39-6 7.168-4.674 8.383-5.665 17.862-2.721 27.062 1.069 3.342 2.906 8.433 6.253 10.254 1.568.853 3.906-.959 4.98-1.875 4.011-3.418 5.664-8.761 6.462-13.798.692-4.362.825-8.764.345-13.151-.8-7.318-5.569-11.116-10.758-15.37"
                transform="translate(18.327 13.147)"
              ></path>
              <path
                fill="#131F51"
                d="M376.325 577.903s-.315 10.689.972 17.496c1.286 6.808 4.776 43.247 4.776 43.247l12.808 6.303s1.134-29.772-.181-43.539c-1.315-13.766 5.129-40.253 4.623-40.005-.507.249 11.512-19.95 11.512-19.95s2.159 20.173 5.955 38.613c3.796 18.44 7.582 29.231 7.582 29.231s11.656 28.236 13.848 32.088c0 0 10.408 1.049 11.126.381.218-.789-5.728-26.023-7.721-36.65-1.992-10.626-3.706-74.785-3.481-81.96.224-7.175-50.428-13.004-50.428-13.004s-11.77 59.867-11.391 67.749z"
                transform="translate(8.449 13.147)"
              ></path>
              <path
                fill="#314584"
                d="M405.389 428.524c2.142-.486 1.787.27 1.2 1.006-2.633 3.301-5.411 4.937-7.823 6.672-6.3 4.533-9.154 5.356-9.16 5.628-.437 20.994-2.262 22.144-2.881 39.624-.169 4.755-.447 16.206-1.116 21.835-2.918 24.559-8.232 46.051-10.46 70.936 5.132-.276 7.81-1.992 10.608-4.224 0 0 4.581-11.605 5.924-19.353 1.825-10.528 4.238-23.274 4.731-33.988 0 0 .93-.309.901-.17.547 16.934.323 28.519-1.719 45.484 0 0-1.681 10.252.009 10.386 7.901.628 16.782-1.779 24.707-1.654 12.676.201 31.269 2.592 33.064-14.629.413-3.96.31-7.964.179-11.944-.131-3.994-.581-7.971-.962-11.949-1.547-16.168-3.355-32.31-4.82-48.484-2.198-24.277-1.188-24.091-1.546-48.629-.19-12.968-1.534-12.703-2.893-25.703-.677-6.474-.975-12.985-1.254-19.489-.251-5.862 1.565-10.91-5.843-13.394-10.402-3.489-13.981 3.009-23.886 6.232-3.375 1.098-11.755 12.096-15.284 15.78-3.383 3.531-20.521 20.96-24.684 22.756 0 0-16.621-7.895-20.231-10.456-3.863-2.739-8.788-7.22-14.884-10.831-.312 3.335-.273 6.905-.954 8.662-.978 2.523-1.97 4.398-2.995 7.84 16.267 8.788 22.546 14.47 24.739 16.066 2.702 1.968 17.871 13.92 19.767 13.505 1.832-.4 21.027-11.737 24.083-14.136 2.01-1.578 2.176-2.614 3.483-3.379z"
                transform="translate(8.449 13.147)"
              ></path>
              <path
                fill="#23282C"
                d="M392.571 334.453c2.034 2.451 4.029 5.05 4.994 8.131 4.221 13.469-6.226 26.751-6.272 39.975-.044 12.612 13.086 14.751 18.478 24.172 1.592 2.78 2.114 5.705 2.052 8.895-.16 8.192-.466 19.183 4.849 26.008 1.281 1.647 2.903 2.984 4.573 4.218.339.252 1.252 1.126 1.682 1.131 1.771.022 3.794-.508 5.537-.818 2.838-.504 5.49-1.338 8.158-2.407 9.424-3.776 17.421-9.634 20.273-19.842.683-2.445 1.617-5.954.843-8.471-1.39-4.52-6.222-6.947-7.393-11.615-1.438-5.734.347-11.554-2.232-17.181-2.535-5.532-8.754-9.604-9.61-15.856-.766-5.597 1.409-11.346 2.19-16.86 1.653-11.685-.842-23.261-10.417-31.087-4.079-3.334-10.621-7.833-16.242-8.051-3.971-.153-8.158 1.437-11.625 3.252a39.346 39.346 0 00-3.343 1.974c-3.834 2.518-11.989 10.151-6.538 14.932"
                transform="translate(18.327 13.147)"
              ></path>
            </g>
            <circle
              cx="156.993"
              cy="229.205"
              r="12.486"
              fill="#BCEBED"
              transform="translate(840.112 -563.613) scale(1.35653) matrix(.3142 0 0 .3142 78.475 406.777)"
            ></circle>
            <circle
              cx="156.993"
              cy="229.205"
              r="12.486"
              fill="#BCEBED"
              transform="translate(840.112 -563.613) scale(1.35653) matrix(.3142 0 0 .3142 214.976 449.614)"
            ></circle>
            <circle
              cx="156.993"
              cy="229.205"
              r="12.486"
              fill="#BCEBED"
              transform="translate(840.112 -563.613) scale(1.35653) matrix(.3142 0 0 .3142 88.453 474.944)"
            ></circle>
            <circle
              cx="156.993"
              cy="229.205"
              r="12.486"
              fill="#BCEBED"
              transform="translate(491.719 -568.186) scale(1.35653) matrix(.3142 0 0 .3142 78.475 406.777)"
            ></circle>
            <circle
              cx="156.993"
              cy="229.205"
              r="12.486"
              fill="#BCEBED"
              transform="translate(491.719 -568.186) scale(1.35653) matrix(.3142 0 0 .3142 214.976 449.614)"
            ></circle>
            <circle
              cx="156.993"
              cy="229.205"
              r="12.486"
              fill="#BCEBED"
              transform="translate(491.719 -568.186) scale(1.35653) matrix(.3142 0 0 .3142 88.453 474.944)"
            ></circle>
            <g transform="translate(54.968)">
              <circle
                cx="331.079"
                cy="122.664"
                r="38.198"
                fill="#BCEBED"
                transform="matrix(.95638 0 0 .95638 552.638 34.732)"
              ></circle>
              <path
                fill="#25A69A"
                fillRule="nonzero"
                d="M150.6 59.4c-9.3-41-50.2-66.8-91.2-57.5C18.4 11.2-7.4 52 1.9 93c9.3 41 50.2 66.8 91.2 57.5 40.9-9.2 66.8-50.1 57.5-91.1zM12.3 47.7c1.6-.7 3.8-1.2 4.6-2.2 1.4-1.9 3.1-5.8 4.4-4.5 2.1 2 2.8 1.3 4.4 3.4.8 1.1.8 4.6 1.9 5.2 1 .5 3.8-.8 5-.5 2.7.7 3.8 3 6 4.8 3.4 2.8 5.2 8.7 8.8 10 2 .8 4.6-.7 5.6.4 1.1 1.2 1 1.4.4 2.3-.8 1.3-6 5.6-9.4 6.1-2.4.4-2.3.3-3.8.1-1.9-.2-5-2.2-6.1-.8-1.8 2.1-.7 3.3-2.5 5.2-1.6 1.6-3.4-.3-6.4.1-3 .4-3.9 0-5 0-3 .1-4.3 1.8-5.1 3-.9 1.3-.2 3.2-1 4.7-1.5 2.8-4.3 3.3-5.6 6.5-.1.2-.2.4-.3.7-.2 0-.2-.3-.3-.5-3.4-15.3-1.6-30.6 4.4-44zm86.5 94.8c-1.4-.9-2.6-1.9-3.4-3-3.2-3.6-3.6-8.6-2.4-12.1 1.2-3.6 4.1-12.4 5.5-14.1 2.9-3.3 7.4-4.2 8.5-4.4 1.1-.2 6.7-1.1 11.2-2.5.9-.3 1.5-.7 1.7-1 .6-1.1.6-2.1.5-3.3-.1-1.1-.4-2.3-.6-3.4-.4-1.8-.6-3.5 1-5 .9-.9.6-1.8-.6-2.3-.5-.2-1.1-.4-1.7-.6.9-.8 1.6-1.7 1.8-2.8.2-.9-.1-1.4-.9-1.4-.9-.1-1.2-.7-1.3-1.4-.1-.8 0-1.5.3-2.2.3-.8.8-1.4 1.2-2.1.4-.6.8-1.2 1.1-1.8.6-1.2 0-2.9-1.1-3.5-2.6-1.3-5.1-2.9-7.6-4.3-1.6-.9-3.1-2.1-4-3.8-.6-1.1-.4-.9-.4-2.1 0-4.1-.2-8.3-.6-11.1-.6-4.4-2.4-8.6-4.1-12.2-.3-.7-.9-1.8-1-1.9-.1-.1-.2 0-.2.2s.1.7.2 1.1c.7 6.1.1 13.5-1.8 19.3-.6 1.2-1 2.2-1.4 3.2 0 .1-.1.1-.1.2-.1.1-.1.2-.2.3-1.7 3.8-3.8 6.7-6.2 9.9-2.2 3-4.9 5.6-9.2 8.8-2.1 1.6-3.9 3.1-6.8 3.5-2.4.3-4.9.8-6 2.4-1.3 1.9-.5 4.2.4 5.5.9 1.3 1.6 2.3 2.8 3.7.2.2.3.3.4.5.2.2.4.5.7.8.6.7.8.9 1.1 1.5.1.2.3.4.4.6.1.2.2.2.9 1.8.7 1.5 1.8 5.8 2.6 10.7 0 .5.2 3.6.2 3.7 0 .1-.2.1-.2 0-.1-.1-1.3-3.7-2.8-6.4-.4-.8-1-1.7-1.7-2.7-.3.4-.5.8-.8 1.1-.1.1-.1.2-.2.3-.1.2-.3.5-.4.8-1.8 3.1-4.4 6.5-7.5 10.5-2 2.5-3.8 5.1-6 8.1-1.2 1.6-1.9 2.3-4.7 5.6-2 2.4-4.1 4.6-5.4 5.9-7.4-3-14.3-7.3-20.3-12.7 1.5-3.1 2.3-6.2 1.6-6.9-2.6-2.7-3-3.4-1.1-5.6 1.3-1.5 1.7-10.1 3.4-12.8 1.9-3 3.3-3.4 3.4-6.7.1-2.9-2.8-3.4-4-5.8-.8-1.7-.4-2.2-.9-4.1-.1-.3-.1-.8-.1-1.3 0-1.9 4.3-5.9 6.1-7.1 3.9-2.5 13.5-.7 18.9-1.8 2.9-.6 2.3-1.1 3.3-4.3.8-2.5 1.4-3.6 1.9-6.2s.5-3.9.9-6.4c.8-5.4-.2-8.9 1.1-7.1 0 0 1.2 2.5 1.4 4.2.1 1 .2 1.9.2 2.6 0 .4.4.6.7.4.3-.2.6-.8 1.2-2.3.3-.7 1.8-4 2.4-6.5.6-2.5.8-7.8.7-9.8-.1-3.9.3-6.1-1.1-9.8v.1c-1.3-3.5-2.1-4.3-4.1-7.9-2.1-3.8-6.5-7.2-4.6-7.4 1.3-.2 1.9.5 5.4 1.9 1.2.5 1.4-1.8 3-2.8 1.5-.9 3.3.2 4-1.3 1.2-2.6 1-4.8.9-6.5 0-.2 0-.5-.1-.7 14-.4 27.5 3.5 39 10.6-.3 2-2.2 7.2-2.6 10.2-.2 1.3-.7 5 .8 6.1.7.5 1.9-1 3.1-.3 1.6.9 5 4 6.4 5.1 3.6 2.9 4.6.9 4.1-1.8-.4-2.4 1-3.3 1.8-.8.8 2.6.2 4.4.7 5.7.9 2.3 6 1.1 7.9 3.9 1.7 2.4 1.2 3.3 2 5.8.9 3.2.8 3.4 2.3 5.4 2.2 3 1.3 8 3.5 8.9.6.2 1.4.2 2.2-.2 5.5 33.6-14.4 66.5-46.6 77.4z"
                transform="matrix(.501 0 0 .501 831.077 113.87)"
              ></path>
            </g>
            <g fillRule="nonzero">
              <path
                fill="#BCEBED"
                d="M92.129 30.648c-9.469-4.828-18.027-7.289-25.391-7.289-9.437 0-14.547 3.961-16.738 6.262-2.172-2.301-7.301-6.262-16.719-6.262-7.371 0-15.93 2.461-25.398 7.289a1.544 1.544 0 00-.832 1.363v37.641s.012.02.012.039c0 .231.058.461.179.661.02.058.047.109.098.148.07.102.121.199.219.289.019.031 2.269 2.082 2.269 4.313 0 .519.25 1 .68 1.289.262.172.559.25.852.25.21 0 .41-.051.609-.141.238-.102 24.922-10.57 37.141-1.66.039.019.078.019.109.039.039.031.059.078.102.09.078.05.191.031.289.07.129.039.262.07.391.07.148 0 .261-.031.39-.07.11-.039.219-.02.32-.07.04-.008.04-.059.09-.09.028-.02.059-.02.098-.039 4.778-3.473 11.452-3.995 17.828-3.335 9.946 1.029 19.165 4.933 19.324 4.995.199.09.41.141.609.141.289 0 .59-.09.84-.25.422-.301.68-.77.68-1.289 0-1.86 1.64-3.739 2.289-4.309.07-.094.133-.184.191-.281.039-.051.102-.102.121-.16.122-.211.18-.43.18-.661V32.012a1.58 1.58 0 00-.832-1.363v-.001z"
                transform="rotate(17.919 -18.395 3843.211)"
              ></path>
              <path
                fill="#25A69A"
                d="M92.129 30.648c-9.469-4.828-18.027-7.289-25.391-7.289-9.437 0-14.547 3.961-16.738 6.262-2.172-2.301-7.301-6.262-16.719-6.262-7.371 0-15.93 2.461-25.398 7.289a1.544 1.544 0 00-.832 1.363v37.641s.012.02.012.039c0 .231.058.461.179.661.02.058.047.109.098.148.07.102.121.199.219.289.019.031 2.269 2.082 2.269 4.313 0 .519.25 1 .68 1.289.262.172.559.25.852.25.21 0 .41-.051.609-.141.238-.102 24.922-10.57 37.141-1.66.039.019.078.019.109.039.039.031.059.078.102.09.078.05.191.031.289.07.129.039.262.07.391.07.148 0 .261-.031.39-.07.11-.039.219-.02.32-.07.04-.008.04-.059.09-.09.028-.02.059-.02.098-.039 4.778-3.473 11.452-3.995 17.828-3.335 9.946 1.029 19.165 4.933 19.324 4.995.199.09.41.141.609.141.289 0 .59-.09.84-.25.422-.301.68-.77.68-1.289 0-1.86 1.64-3.739 2.289-4.309.07-.094.133-.184.191-.281.039-.051.102-.102.121-.16.122-.211.18-.43.18-.661V32.012a1.58 1.58 0 00-.832-1.363v-.001zm-43.648 40.23c-11.93-6.148-30.16-.109-35.941 2.102-.352-1.102-.949-2.071-1.5-2.821 8.328-4.039 15.801-6.109 22.238-6.109 9.852 0 14.191 4.769 15.211 6.09v.738h-.008zm0-5.051c-2.711-2.219-7.539-4.828-15.199-4.828-6.793 0-14.582 2.07-23.18 6.192v-34.23c8.711-4.352 16.5-6.54 23.172-6.54 9.852 0 14.191 4.77 15.211 6.079l-.004 33.327zm39 7.153c-5.781-2.2-24-8.25-35.941-2.102v-.731c1-1.3 5.359-6.101 15.18-6.101 6.449 0 13.93 2.07 22.25 6.109-.547.754-1.141 1.723-1.488 2.824l-.001.001zm2.418-5.79c-8.59-4.121-16.359-6.191-23.18-6.191-7.66 0-12.469 2.621-15.18 4.828V32.499c1.019-1.328 5.359-6.078 15.199-6.078 6.66 0 14.449 2.199 23.16 6.539l.001 34.23z"
                transform="rotate(17.919 -18.395 3843.211)"
              ></path>
              <path
                fill="#25A69A"
                d="M13.852 35.262a1.519 1.519 0 00-.859 1.981c.238.609.808.968 1.429.968.192 0 .371-.051.571-.121 5.761-2.308 21.84-6.93 26.891-.48.507.679 1.476.789 2.148.269.648-.519.77-1.469.25-2.148-7.5-9.57-29.512-.852-30.43-.469zM13.852 43.23a1.524 1.524 0 00-.859 1.988c.23.602.808.961 1.429.961.192 0 .371-.039.571-.109 5.757-2.32 21.828-6.942 26.887-.469.511.672 1.48.77 2.148.262a1.55 1.55 0 00.254-2.152c-7.5-9.582-29.512-.86-30.43-.481z"
                transform="rotate(17.919 -18.395 3843.211)"
              ></path>
            </g>
            <g transform="translate(650.167 322.659)">
              <g>
                <g>
                  <path
                    fill="#3AAEA3"
                    fillRule="nonzero"
                    d="M52.539 57.809a4.241 4.241 0 003.246-.215 4.223 4.223 0 002.141-2.449l4.672-13.812a4.241 4.241 0 00-.215-3.246 4.223 4.223 0 00-2.449-2.141 4.256 4.256 0 00-5.387 2.664l-4.672 13.812a4.254 4.254 0 002.664 5.387zM35.84 30.961l-2.613 7.723c2.328.3 5.113.91 8.355 1.824l2.309-6.828a4.241 4.241 0 00-.215-3.246 4.22 4.22 0 00-2.449-2.141 4.241 4.241 0 00-5.387 2.668zM46.34 47.488a5.728 5.728 0 01-5.973 4.516h-.011a4.278 4.278 0 002.628 2.578 4.244 4.244 0 005.387-2.664l5.59-16.531a4.241 4.241 0 00-.215-3.246A4.22 4.22 0 0051.297 30a4.241 4.241 0 00-3.246.215 4.223 4.223 0 00-2.141 2.449l-2.824 8.348a5.77 5.77 0 013.254 6.476zM65.105 42.762a4.223 4.223 0 00-2.141 2.449L59.433 55.66a4.256 4.256 0 002.664 5.387 4.241 4.241 0 003.246-.215 4.22 4.22 0 002.141-2.449l3.531-10.441v-.008a4.241 4.241 0 00-.215-3.246 4.223 4.223 0 00-2.449-2.141 4.204 4.204 0 00-3.246.215z"
                  ></path>
                  <path
                    fill="#3AAEA3"
                    fillRule="nonzero"
                    d="M68.984 58.887a5.799 5.799 0 01-2.941 3.363 5.826 5.826 0 01-2.582.61 5.837 5.837 0 01-5.723-4.668 5.827 5.827 0 01-1.25.832 5.835 5.835 0 01-2.582.609 5.841 5.841 0 01-5.723-4.668 5.79 5.79 0 01-1.25.832 5.833 5.833 0 01-2.582.61 5.858 5.858 0 01-1.875-.309 5.87 5.87 0 01-3.805-4.184l-5.707-.343c5.165 2.746 9.082 7.113 11.672 13.027a.796.796 0 01-1.457.64c-3.125-7.133-8.043-11.703-15.027-13.98a.794.794 0 01.293-1.547l12.016.727a4.154 4.154 0 004.328-3.27 4.182 4.182 0 00-2.906-4.898c-7.781-2.262-13.301-2.809-15.145-1.5-3.984 2.832-7.285 13.41-5.437 17.414 1.996 4.324 16.832 16.227 16.98 16.348a.794.794 0 01-.496 1.414.794.794 0 01-.496-.176c-.129-.101-.856-.683-1.942-1.582v24.246h24.504V78.872c0-.238.11-.465.293-.617.043-.035 4.457-3.668 6.684-8.93 1.148-2.714 2.195-8.097 2.953-12.762l-.797 2.324z"
                  ></path>
                  <path
                    fill="#0E796A"
                    d="M700.611 4780.83a1.296 1.296 0 01-1.289-1.36s2.714-21.1 2.714-21.09a1.293 1.293 0 012.585.03c0 .02-.001.04-.004.06l-2.713 21.09c-.015.7-.589 1.27-1.293 1.27zm-15.698-1.48l-5-19.97-.002-.01c-.16-.7.279-1.39.973-1.55.692-.16 1.384.28 1.546.97l5.001 19.97.002.01a1.3 1.3 0 01-.973 1.55h-.014a1.298 1.298 0 01-1.533-.97zm-8.857 10.65l-16.41-9.29a.578.578 0 01-.173-.16c-.388-.6-.217-1.4.382-1.79.56-.37 1.3-.24 1.709.27l16.41 9.29c.07.04.13.1.173.17a1.295 1.295 0 01-1.083 2c-.384 0-.757-.17-1.008-.49zm35.861-6.1c-.004 0-.009-.01-.013-.01a1.295 1.295 0 01-.974-1.55c.01-.04.026-.08.048-.12l10.188-18.82c.189-.65.853-1.05 1.529-.9.701.16 1.133.86.974 1.55a.437.437 0 01-.048.13s-10.189 18.81-10.187 18.81a1.3 1.3 0 01-1.243.94c-.091 0-.182-.02-.274-.03zm.154-.49l-.056.49a.496.496 0 00.498-.54c-.1.04-.209.07-.322.07-.04 0-.08-.01-.12-.02zm9.711 11.56h-.004a1.296 1.296 0 01-.374-1.79.457.457 0 01.161-.16s16.444-9.95 16.442-9.94c.41-.52 1.153-.64 1.716-.28.599.39.767 1.19.378 1.79a.567.567 0 01-.16.16l-16.446 9.95a1.3 1.3 0 01-1.713.27z"
                    transform="translate(-650.167 -4758.29)"
                  ></path>
                </g>
              </g>
            </g>
          </g>
        </g>
      </g>
      <defs>
        <linearGradient
          id="_Linear1"
          x1="0"
          x2="1"
          y1="0"
          y2="0"
          gradientTransform="matrix(0 96.5511 -193.102 0 565.115 461.067)"
          gradientUnits="userSpaceOnUse"
        >
          <stop offset="0" stopColor="#61CBCF"></stop>
          <stop offset="1" stopColor="#3AAEA3"></stop>
        </linearGradient>
        <linearGradient
          id="_Linear2"
          x1="0"
          x2="1"
          y1="0"
          y2="0"
          gradientTransform="matrix(0 96.5511 -193.102 0 565.115 461.067)"
          gradientUnits="userSpaceOnUse"
        >
          <stop offset="0" stopColor="#61CBCF"></stop>
          <stop offset="1" stopColor="#3AAEA3"></stop>
        </linearGradient>
        <linearGradient
          id="_Linear3"
          x1="0"
          x2="1"
          y1="0"
          y2="0"
          gradientTransform="matrix(.83221 -255.522 255.522 .81866 466.242 516.267)"
          gradientUnits="userSpaceOnUse"
        >
          <stop offset="0" stopColor="#61CBCF"></stop>
          <stop offset="1" stopColor="#314584"></stop>
        </linearGradient>
        <linearGradient
          id="_Linear4"
          x1="0"
          x2="1"
          y1="0"
          y2="0"
          gradientTransform="translate(217.815 389.797) scale(81.1275)"
          gradientUnits="userSpaceOnUse"
        >
          <stop offset="0" stopColor="#61CBCF"></stop>
          <stop offset="1" stopColor="#314584"></stop>
        </linearGradient>
      </defs>
    </svg>